<?xml version="1.0" encoding="UTF-8" standalone="no"?>
<svg width="30px" height="30px" viewBox="0 0 30 30" version="1.1" xmlns="http://www.w3.org/2000/svg" xmlns:xlink="http://www.w3.org/1999/xlink">
    <!-- Generator: Sketch 39.1 (31720) - http://www.bohemiancoding.com/sketch -->
    <title>Page 1</title>
    <desc>Created with Sketch.</desc>
    <defs></defs>
    <g id="Symbols" stroke="none" stroke-width="1" fill="none" fill-rule="evenodd">
        <g id="HEADER-BAR" transform="translate(-674.000000, -20.000000)">
            <g id="Page-1" transform="translate(674.000000, 20.000000)">
                <path d="M15,0 C23.2842,0 30,6.7182 30,15.006 C30,23.2938 23.2842,30.012 15,30.012 C6.7158,30.012 0,23.2938 0,15.006 C0,6.7182 6.7158,0 15,0" id="Fill-1" fill="#0481D9"></path>
                <path d="M16.20648,10.67826 L18.27708,10.67826 L18.27708,8.11506 L16.20648,8.11506 C14.49588,8.11506 13.10328,9.62166 13.10328,11.47686 L13.10328,12.76686 L11.03268,12.76686 L11.03268,15.33606 L13.10328,15.33606 L13.10328,21.56046 L15.69048,21.56046 L15.69048,15.34206 L18.27708,15.34206 L18.27708,12.77286 L15.69048,12.77286 L15.69048,11.45286 C15.68448,11.01426 15.96048,10.67826 16.20648,10.67826" id="Fill-3" fill="#FFFFFF"></path>
            </g>
        </g>
    </g>
</svg>