<?xml version="1.0" encoding="UTF-8" standalone="no"?>
<svg width="40px" height="38px" viewBox="0 0 40 38" version="1.1" xmlns="http://www.w3.org/2000/svg" xmlns:xlink="http://www.w3.org/1999/xlink">
    <!-- Generator: Sketch 42 (36781) - http://www.bohemiancoding.com/sketch -->
    <title>Group 3</title>
    <desc>Created with Sketch.</desc>
    <defs>
        <path d="M15,0.189189189 C15,0.189189189 18.1321615,0 20,0 C21.8678385,0 25,0.189189189 25,0.189189189 L25,7 L15,7 L15,0.189189189 Z" id="path-1"></path>
        <mask id="mask-2" maskContentUnits="userSpaceOnUse" maskUnits="objectBoundingBox" x="0" y="0" width="10" height="7" fill="white">
            <use xlink:href="#path-1"></use>
        </mask>
        <path d="M0,2 C0,2 10.6666667,9.43689571e-16 20,0 C29.3333333,0 40,2 40,2 L40,31 C40,31 30.6666667,34 20,34 C9.33333333,34 0,31 0,31 L0,2 Z" id="path-3"></path>
        <path d="M0,6 C0,6 10.6666667,4 20,4 C29.3333333,4 40,6 40,6 L40,35 C40,35 30.6666667,38 20,38 C9.33333333,38 0,35 0,35 L0,6 Z" id="path-5"></path>
        <mask id="mask-6" maskContentUnits="userSpaceOnUse" maskUnits="objectBoundingBox" x="0" y="0" width="40" height="34" fill="white">
            <use xlink:href="#path-5"></use>
        </mask>
    </defs>
    <g id="Page-1" stroke="none" stroke-width="1" fill="none" fill-rule="evenodd">
        <g id="Artboard-2-Copy-7" transform="translate(-267.000000, -122.000000)">
            <g id="STEP-2" transform="translate(267.000000, 122.000000)">
                <g id="Group-3">
                    <use id="CAN-SPOUT" stroke="#979797" mask="url(#mask-2)" stroke-width="4" xlink:href="#path-1"></use>
                    <g id="CAN-CONTENTS" transform="translate(0.000000, 4.000000)">
                        <g id="Fill-1-+-Fill-2-Mask">
                            <mask id="mask-4" fill="white">
                                <use xlink:href="#path-3"></use>
                            </mask>
                            <use id="Mask" fill="#FFFFFF" xlink:href="#path-3"></use>
                        </g>
                    </g>
                    <use id="CAN-OUTLINE" stroke="#9B9B9B" mask="url(#mask-6)" stroke-width="4" xlink:href="#path-5"></use>
                </g>
            </g>
        </g>
    </g>
</svg>
