<?xml version="1.0" encoding="UTF-8" standalone="no"?>
<svg width="132px" height="9px" viewBox="0 0 132 9" version="1.1" xmlns="http://www.w3.org/2000/svg" xmlns:xlink="http://www.w3.org/1999/xlink">
    <!-- Generator: Sketch 39.1 (31720) - http://www.bohemiancoding.com/sketch -->
    <title>Page 1</title>
    <desc>Created with Sketch.</desc>
    <defs></defs>
    <g id="Page-1" stroke="none" stroke-width="1" fill="none" fill-rule="evenodd">
        <g id="Artboard" transform="translate(-313.000000, -225.000000)">
            <g id="Page-1" transform="translate(313.000000, 225.000000)">
                <path d="M52.957,8.08105 C49.14,8.08105 45.336,7.64805 41.652,6.79505 L34.752,5.19405 C31.342,4.40205 27.847,4.00205 24.364,4.00205 C22.599,4.00205 20.81,4.10505 19.047,4.31005 L0.461,6.46505 L0,2.49205 L18.586,0.33705 C20.5,0.11305 22.444,5e-05 24.365,5e-05 C28.146,5e-05 31.945,0.43605 35.654,1.29605 L42.555,2.89605 C45.942,3.68305 49.441,4.08105 52.957,4.08105 C56.473,4.08105 59.972,3.68305 63.357,2.89705 L68.427,1.72105 C72.149,0.85905 75.95,0.42305 79.723,0.42305 C82.887,0.42305 86.084,0.73005 89.226,1.33805 L98.709,3.17105 C101.587,3.72705 104.526,4.00805 107.446,4.00805 C108.626,4.00805 109.819,3.96205 110.993,3.87005 L131.399,2.29205 L131.708,6.28005 L111.303,7.85805 C110.024,7.95605 108.728,8.00605 107.449,8.00605 C104.264,8.00605 101.067,7.70005 97.95,7.09705 L88.468,5.26405 C85.575,4.70505 82.633,4.42105 79.724,4.42105 C76.253,4.42105 72.756,4.82405 69.329,5.61905 L64.261,6.79505 C60.577,7.64805 56.774,8.08105 52.957,8.08105" id="Fill-1" fill="#FFFFFF"></path>
                <path d="M52.957,7.08105 C49.229,7.08105 45.502,6.66005 41.878,5.82005 L34.978,4.22005 C29.703,2.99605 24.306,2.69305 18.932,3.31605 L1.339,5.35605 L1.108,3.37005 L18.701,1.33005 C24.303,0.67705 29.932,0.99605 35.429,2.27005 L42.329,3.87105 C49.281,5.48405 56.63,5.48505 63.584,3.87105 L68.652,2.69505 C75.39,1.13605 82.25,1.00805 89.036,2.31905 L98.52,4.15205 C102.65,4.95005 106.874,5.19405 111.071,4.86705 L130.479,3.36605 L130.634,5.36005 L111.226,6.86105 C106.845,7.19705 102.445,6.94805 98.141,6.11505 L88.657,4.28205 C82.146,3.02305 75.567,3.14505 69.103,4.64405 L64.035,5.82005 C60.411,6.66005 56.684,7.08105 52.957,7.08105" id="Fill-3" fill="#98CAEC"></path>
            </g>
        </g>
    </g>
</svg>