<?xml version="1.0" encoding="UTF-8" standalone="no"?>
<svg width="38px" height="23px" viewBox="0 0 38 23" version="1.1" xmlns="http://www.w3.org/2000/svg" xmlns:xlink="http://www.w3.org/1999/xlink">
    <!-- Generator: Sketch 39.1 (31720) - http://www.bohemiancoding.com/sketch -->
    <title>Group 2</title>
    <desc>Created with Sketch.</desc>
    <defs>
        <polygon id="path-1" points="0 23 37.709 23 37.709 0 0 0"></polygon>
    </defs>
    <g id="Page-1" stroke="none" stroke-width="1" fill="none" fill-rule="evenodd">
        <g id="Artboard" transform="translate(-159.000000, -219.000000)">
            <g id="Group-2" transform="translate(159.000000, 219.000000)">
                <g id="Page-1">
                    <g id="Group-3">
                        <mask id="mask-2" fill="white">
                            <use xlink:href="#path-1"></use>
                        </mask>
                        <g id="Clip-2"></g>
                        <path d="M3.5981,23 C2.5361,23 1.5331,22.393 0.8471,21.58 C0.1611,20.765 -0.1279,19.869 0.0521,18.823 L3.3131,0 L30.6941,0 C32.4521,0 33.9431,1.158 34.2401,2.89 L37.7091,23 L3.5981,23 Z" id="Fill-1" fill="#FFFFFF" mask="url(#mask-2)"></path>
                    </g>
                    <path d="M34.596,20.3402 L28.079,20.3402 L27.449,12.1772 L33.195,12.1772 L34.596,20.3402 Z M2.854,19.9942 C2.668,19.7742 2.59,19.4852 2.639,19.2022 L3.845,12.1772 L9.808,12.1772 L8.982,20.3402 L3.598,20.3402 C3.31,20.3402 3.039,20.2142 2.854,19.9942 L2.854,19.9942 Z M5.525,2.3902 L10.799,2.3902 L9.973,10.5532 L4.124,10.5532 L5.525,2.3902 Z M19.458,10.5532 L19.458,2.3902 L25.064,2.3902 L25.694,10.5532 L19.458,10.5532 Z M19.458,12.1772 L25.82,12.1772 L26.45,20.3402 L19.458,20.3402 L19.458,12.1772 Z M11.605,10.5532 L12.432,2.3902 L17.834,2.3902 L17.834,10.5532 L11.605,10.5532 Z M17.834,12.1772 L17.834,20.3402 L10.614,20.3402 L11.441,12.1772 L17.834,12.1772 Z M31.653,3.1992 L32.916,10.5532 L27.323,10.5532 L26.693,2.3902 L30.694,2.3902 C31.168,2.3902 31.573,2.7322 31.653,3.1992 L31.653,3.1992 Z M36.523,21.9642 L33.254,2.9242 C33.04,1.6772 31.959,0.7662 30.694,0.7662 L4.156,0.7662 L1.038,18.9272 C0.908,19.6842 1.117,20.4542 1.612,21.0412 C2.106,21.6282 2.83,21.9642 3.598,21.9642 L36.523,21.9642 Z" id="Fill-4" fill="#9B9B9B"></path>
                </g>
            </g>
        </g>
    </g>
</svg>