<?xml version="1.0" encoding="UTF-8" standalone="no"?>
<svg width="22px" height="22px" viewBox="0 0 22 22" version="1.1" xmlns="http://www.w3.org/2000/svg" xmlns:xlink="http://www.w3.org/1999/xlink">
    <!-- Generator: Sketch 41.2 (35397) - http://www.bohemiancoding.com/sketch -->
    <title>Group</title>
    <desc>Created with Sketch.</desc>
    <defs></defs>
    <g id="Page-1" stroke="none" stroke-width="1" fill="none" fill-rule="evenodd">
        <g id="Artboard" transform="translate(-180.000000, -106.000000)" fill="#F6A623">
            <g id="Group" transform="translate(180.000000, 106.000000)">
                <path d="M11,4 C11.552,4 12,3.776 12,3.5 L12,0.5 C12,0.224 11.552,0 11,0 C10.448,0 10,0.224 10,0.5 L10,3.5 C10,3.776 10.448,4 11,4" id="Fill-3"></path>
                <path d="M11,18 C10.448,18 10,18.224 10,18.5 L10,21.5 C10,21.776 10.448,22 11,22 C11.552,22 12,21.776 12,21.5 L12,18.5 C12,18.224 11.552,18 11,18" id="Fill-5"></path>
                <path d="M17.1213203,15.1213203 C16.5693203,15.1213203 16.1213203,15.3453203 16.1213203,15.6213203 L16.1213203,18.6213203 C16.1213203,18.8973203 16.5693203,19.1213203 17.1213203,19.1213203 C17.6733203,19.1213203 18.1213203,18.8973203 18.1213203,18.6213203 L18.1213203,15.6213203 C18.1213203,15.3453203 17.6733203,15.1213203 17.1213203,15.1213203" id="Fill-5-Copy" transform="translate(17.121320, 17.121320) rotate(-45.000000) translate(-17.121320, -17.121320) "></path>
                <path d="M17.1213203,3.12132034 C16.5693203,3.12132034 16.1213203,3.34532034 16.1213203,3.62132034 L16.1213203,6.62132034 C16.1213203,6.89732034 16.5693203,7.12132034 17.1213203,7.12132034 C17.6733203,7.12132034 18.1213203,6.89732034 18.1213203,6.62132034 L18.1213203,3.62132034 C18.1213203,3.34532034 17.6733203,3.12132034 17.1213203,3.12132034" id="Fill-5-Copy-2" transform="translate(17.121320, 5.121320) rotate(45.000000) translate(-17.121320, -5.121320) "></path>
                <path d="M4.12132034,3.12132034 C3.56932034,3.12132034 3.12132034,3.34532034 3.12132034,3.62132034 L3.12132034,6.62132034 C3.12132034,6.89732034 3.56932034,7.12132034 4.12132034,7.12132034 C4.67332034,7.12132034 5.12132034,6.89732034 5.12132034,6.62132034 L5.12132034,3.62132034 C5.12132034,3.34532034 4.67332034,3.12132034 4.12132034,3.12132034" id="Fill-5-Copy-3" transform="translate(4.121320, 5.121320) rotate(-45.000000) translate(-4.121320, -5.121320) "></path>
                <path d="M5.3431,15.9497 L3.2221,18.0707 C3.0261,18.2667 3.0261,18.5827 3.2221,18.7777 C3.4171,18.9737 3.7331,18.9737 3.9291,18.7777 L6.0501,16.6567 C6.2461,16.4617 6.2461,16.1447 6.0501,15.9497 C5.8551,15.7547 5.5381,15.7547 5.3431,15.9497" id="Fill-9"></path>
                <path d="M4,11.3594 C4,10.8074 3.776,10.3594 3.5,10.3594 L0.5,10.3594 C0.224,10.3594 0,10.8074 0,11.3594 C0,11.9114 0.224,12.3594 0.5,12.3594 L3.5,12.3594 C3.776,12.3594 4,11.9114 4,11.3594" id="Fill-15"></path>
                <path d="M21.5,10.3594 L18.5,10.3594 C18.224,10.3594 18,10.8074 18,11.3594 C18,11.9114 18.224,12.3594 18.5,12.3594 L21.5,12.3594 C21.776,12.3594 22,11.9114 22,11.3594 C22,10.8074 21.776,10.3594 21.5,10.3594" id="Fill-17"></path>
            </g>
        </g>
    </g>
</svg>