<?xml version="1.0" encoding="UTF-8" standalone="no"?>
<svg width="30px" height="30px" viewBox="0 0 30 30" version="1.1" xmlns="http://www.w3.org/2000/svg" xmlns:xlink="http://www.w3.org/1999/xlink">
    <!-- Generator: Sketch 39.1 (31720) - http://www.bohemiancoding.com/sketch -->
    <title>Page 1</title>
    <desc>Created with Sketch.</desc>
    <defs></defs>
    <g id="Symbols" stroke="none" stroke-width="1" fill="none" fill-rule="evenodd">
        <g id="HEADER-BAR" transform="translate(-714.000000, -21.000000)">
            <g id="Page-1" transform="translate(714.000000, 21.000000)">
                <path d="M15,0 C23.2842,0 30,6.7182 30,15.006 C30,23.2938 23.2842,30.012 15,30.012 C6.7158,30.012 0,23.2938 0,15.006 C0,6.7182 6.7158,0 15,0" id="Fill-1" fill="#00ACF0"></path>
                <path d="M21.7167,11.11644 C22.7853,10.42044 22.8813,9.45984 22.8813,9.45984 C22.5333,9.93984 20.9967,10.19184 20.9967,10.19184 C19.6761,8.63124 17.6949,9.45984 17.6949,9.45984 C15.3663,10.28784 15.7143,12.98904 15.7143,12.98904 C11.6565,12.92304 9.4539,9.80784 9.4539,9.80784 C8.2413,12.35304 10.2879,13.89564 10.2879,13.89564 C9.8319,13.94364 9.0159,13.57764 9.0159,13.57764 C8.9859,15.91824 11.4045,16.74084 11.4045,16.74084 C11.1825,16.77084 10.1439,16.77084 10.1439,16.77084 C10.6785,18.67944 12.9411,18.87144 12.9411,18.87144 C10.7385,20.52804 8.5353,20.24004 8.5353,20.24004 C10.7085,21.89664 12.8571,21.71664 14.3217,21.51264 C17.9289,21.00864 19.8621,18.36744 19.8621,18.36744 C22.4067,15.09024 21.5607,12.32304 21.9687,12.16104 C21.9747,12.16104 21.9807,12.15504 21.9867,12.14904 C22.4067,11.95704 23.3793,10.72644 23.3793,10.72644 C22.6893,11.11644 21.7167,11.11644 21.7167,11.11644" id="Fill-3" fill="#FFFFFF"></path>
            </g>
        </g>
    </g>
</svg>