<?xml version="1.0" encoding="utf-8"?>
<!-- Generator: Adobe Illustrator 19.2.1, SVG Export Plug-In . SVG Version: 6.00 Build 0)  -->
<svg version="1.1" id="Layer_1" xmlns="http://www.w3.org/2000/svg" xmlns:xlink="http://www.w3.org/1999/xlink" x="0px" y="0px"
	 viewBox="0 0 40 46" style="enable-background:new 0 0 40 46;" xml:space="preserve">
<style type="text/css">
	.st0{fill:#CCE080;}
	.st1{fill:#9B9B9B;}
</style>
<g id="Group-7-Copy" transform="translate(356.000000, 276.000000)">
	<g id="Group-6">
		<path id="Fill-1" class="st0" d="M-326.6-253c0,3.8-5.7,3.8-5.7,0C-332.3-256.8-326.6-256.8-326.6-253"/>
		<path id="Fill-2" class="st1" d="M-324.6-255.9c7.8-14.1,9.1-19.7,8.4-20.1c-0.7-0.4-4.9,3.5-13.2,17.3
			C-327.3-258.6-325.6-257.5-324.6-255.9z"/>
		<path id="Fill-3" class="st1" d="M-335.2-253c0-1,0.3-2,0.7-2.8c-16.1,0.3-21.6,1.9-21.6,2.8c0,0.9,5.5,2.5,21.6,2.8
			C-334.9-251-335.2-252-335.2-253z"/>
		<path id="Fill-4" class="st1" d="M-324.6-250.1c-1,1.7-2.8,2.8-4.8,2.8c8.3,13.8,12.5,17.7,13.2,17.3
			C-315.4-230.5-316.8-236.1-324.6-250.1z"/>
	</g>
</g>
</svg>
