<?xml version="1.0" encoding="UTF-8" standalone="no"?>
<svg width="60px" height="60px" viewBox="0 0 60 60" version="1.1" xmlns="http://www.w3.org/2000/svg" xmlns:xlink="http://www.w3.org/1999/xlink">
    <!-- Generator: Sketch 42 (36781) - http://www.bohemiancoding.com/sketch -->
    <title>Group 2</title>
    <desc>Created with Sketch.</desc>
    <defs>
        <path d="M30,60 C46.5685425,60 60,46.5685425 60,30 C60,15.0249035 49.0277981,2.61250202 34.6841338,0.363535219 C33.1578763,0.12423078 31.593446,0 30,0 C13.4314575,0 0,13.4314575 0,30 C0,46.5685425 13.4314575,60 30,60 Z" id="path-1"></path>
        <rect id="path-3" x="7" y="17" width="46" height="24" rx="5"></rect>
        <mask id="mask-4" maskContentUnits="userSpaceOnUse" maskUnits="objectBoundingBox" x="0" y="0" width="46" height="24" fill="white">
            <use xlink:href="#path-3"></use>
        </mask>
    </defs>
    <g id="Page-1" stroke="none" stroke-width="1" fill="none" fill-rule="evenodd">
        <g id="Artboard-2-Copy-6" transform="translate(-76.000000, -73.000000)">
            <g id="Group-2" transform="translate(76.000000, 73.000000)">
                <g id="Group-Copy-5">
                    <g id="Rectangle-2-Copy-4-+-Rectangle-2-Copy-2-+-Rectangle-2-Copy-3-Mask-Copy-Copy-Copy">
                        <mask id="mask-2" fill="white">
                            <use xlink:href="#path-1"></use>
                        </mask>
                        <use id="Mask" fill="#FFFFFF" xlink:href="#path-1"></use>
                        <rect id="Rectangle-2-Copy-4" fill="#979797" mask="url(#mask-2)" x="22" y="-2" width="15" height="19"></rect>
                        <rect id="Rectangle-2-Copy-2" fill="#979797" mask="url(#mask-2)" x="34" y="41" width="15" height="19"></rect>
                        <rect id="Rectangle-2-Copy-3" fill="#979797" mask="url(#mask-2)" x="11" y="41" width="15" height="19"></rect>
                    </g>
                    <use id="Rectangle-Copy-7" stroke="#ADADAD" mask="url(#mask-4)" stroke-width="4" fill="#FFFFFF" xlink:href="#path-3"></use>
                    <g id="Group-Copy-3" transform="translate(11.000000, 21.000000)" fill="#FBB8D8">
                        <path d="M1.99842582,9.23216555 C1.99842582,11.0756943 0.999606454,12 0.999606454,12 L3.00118064,12 C3.00118064,12 4,11.0756943 4,9.23216555 C4,7.3828281 3.00118064,6.46070067 3.00118064,6.46070067 C3.00118064,6.46070067 2.00157418,5.53929933 2.00157418,3.68996188 C2.00157418,1.84352877 3.00118064,0.921401343 3.00118064,0.921401343 C3.00118064,0.921401343 3.33018497,0.607006716 3.60960252,0 L1.60802834,0 C1.32861078,0.609911055 0.999606454,0.921401343 0.999606454,0.921401343 C0.999606454,0.921401343 0,1.84352877 0,3.68996188 C0,5.53929933 0.999606454,6.46070067 0.999606454,6.46070067 C0.999606454,6.46070067 1.99842582,7.3828281 1.99842582,9.23216555 Z" id="Fill-1-Copy-9"></path>
                        <path d="M1,15 L14,15" id="Line-Copy-5" stroke="#FBB8D8" stroke-width="2" stroke-linecap="round"></path>
                        <path d="M6.99842582,9.23216555 C6.99842582,11.0756943 5.99960645,12 5.99960645,12 L8.00118064,12 C8.00118064,12 9,11.0756943 9,9.23216555 C9,7.3828281 8.00118064,6.46070067 8.00118064,6.46070067 C8.00118064,6.46070067 7.00157418,5.53929933 7.00157418,3.68996188 C7.00157418,1.84352877 8.00118064,0.921401343 8.00118064,0.921401343 C8.00118064,0.921401343 8.33018497,0.607006716 8.60960252,0 L6.60802834,0 C6.32861078,0.609911055 5.99960645,0.921401343 5.99960645,0.921401343 C5.99960645,0.921401343 5,1.84352877 5,3.68996188 C5,5.53929933 5.99960645,6.46070067 5.99960645,6.46070067 C5.99960645,6.46070067 6.99842582,7.3828281 6.99842582,9.23216555 Z" id="Fill-2-Copy-7"></path>
                        <path d="M11.9936983,9.23216555 C11.9936983,11.0756943 10.9940922,12 10.9940922,12 L13.0003939,12 C13.0003939,12 14,11.0756943 14,9.23216555 C14,7.3828281 13.0003939,6.46070067 13.0003939,6.46070067 C13.0003939,6.46070067 12,5.53929933 12,3.68996188 C12,1.84352877 13.0003939,0.921401343 13.0003939,0.921401343 C13.0003939,0.921401343 13.3296573,0.607006716 13.609295,0 L11.6061442,0 C11.3233557,0.609911055 10.997243,0.921401343 10.997243,0.921401343 C10.997243,0.921401343 10,1.84352877 10,3.68996188 C10,5.53929933 10.997243,6.46070067 10.997243,6.46070067 C10.997243,6.46070067 11.9936983,7.3828281 11.9936983,9.23216555 Z" id="Fill-3-Copy-7"></path>
                    </g>
                    <polygon id="Page-1-Copy-7" fill="#FBB8D8" points="39.2190714 21 44.5003255 21 42.7344218 26.5052969 46 26.5052969 39.906726 37 41.3755696 29.0403947 38 29.0403947"></polygon>
                    <polygon id="Triangle-Copy-21" fill="#979797" points="22 10 22 17 15 17"></polygon>
                    <polygon id="Triangle-Copy-19" fill="#979797" points="37 10 44 17 37 17"></polygon>
                    <polygon id="Triangle-Copy-18" fill="#ADADAD" points="30.5 30 34 40 27 40"></polygon>
                </g>
            </g>
        </g>
    </g>
</svg>