<?xml version="1.0" encoding="UTF-8" standalone="no"?>
<svg width="56px" height="37px" viewBox="0 0 56 37" version="1.1" xmlns="http://www.w3.org/2000/svg" xmlns:xlink="http://www.w3.org/1999/xlink">
    <!-- Generator: Sketch 39.1 (31720) - http://www.bohemiancoding.com/sketch -->
    <title>Group</title>
    <desc>Created with Sketch.</desc>
    <defs></defs>
    <g id="Symbols" stroke="none" stroke-width="1" fill="none" fill-rule="evenodd">
        <g id="HYDRO---HI" transform="translate(-9.000000, -11.000000)">
            <g id="Group" transform="translate(9.000000, 11.000000)">
                <path d="M34.7417812,28.9435849 C30.877398,28.6179872 28.4443854,27.6699235 26.0915204,26.7531337 C23.945647,25.9169062 21.7269244,25.0523513 18.1960388,24.6520845 C18.1742111,24.6496067 18.1521807,24.6475307 18.130353,24.6451199 C18.8649264,25.8440452 19.8103433,26.9020032 20.916596,27.7674286 C19.6885677,29.6851199 17.8439572,31.9404629 15.685717,32.5489328 C19.6804583,33.5675807 22.3634421,31.4599017 23.9255087,29.4774526 C25.2556475,29.9927701 26.7032369,30.2759771 28.2175935,30.2759771 C29.7622926,30.2759771 31.2373862,29.9811847 32.5893527,29.4461116 C33.6508688,31.4586293 34.6985989,34.1682822 34.1514194,36.3239102 C36.5351,33.9142732 36.6099089,31.2066963 36.0282646,29.0233436 C35.6049557,29.0062668 35.175362,28.9801493 34.7417812,28.9435849" id="Fill-4" fill="#9B9B9B"></path>
                <path d="M37.1140749,27.9750089 C36.394639,27.9750089 35.6369539,27.9436679 34.8333833,27.8759634 C31.1261866,27.5636254 28.7677802,26.6446257 26.4870209,25.7558954 C24.2764077,24.894488 21.9905126,24.0037487 18.3189295,23.5875436 C12.743943,22.955568 6.97135835,23.7492709 1.16174089,25.9467538 L0.535224783,24.3200378 C6.61049156,22.0221702 12.6610248,21.193711 18.5186226,21.8576302 C22.4190926,22.2997519 24.8139236,23.2330158 27.1300261,24.1355414 C29.3930123,25.017307 31.530506,25.8502531 34.9822577,26.1410944 C40.1502216,26.5763854 43.3447712,25.3680176 46.7261742,24.088597 C49.2651491,23.1279432 51.8904888,22.1346092 55.4860466,21.7237615 L55.6873616,23.4534739 C52.311027,23.8392087 49.7905009,24.7928978 47.3529606,25.7152459 C44.2942428,26.8725842 41.3806152,27.9750089 37.1140749,27.9750089" id="Fill-8" fill="#98CAEC"></path>
                <path d="M16.5574535,20.3499228 C16.571307,20.4406643 16.5863094,20.5310708 16.6021902,20.6211426 C17.2860125,20.6593143 17.967402,20.7166387 18.6414931,20.7930491 C19.341872,20.8724729 19.993865,20.9672324 20.6071358,21.0739122 C20.344933,20.2825532 20.2086281,19.4461918 20.2086281,18.5890703 C20.2086281,16.4690693 21.0416627,14.4760392 22.5543974,12.976964 C24.067132,11.4779558 26.0783224,10.6523762 28.2176408,10.6523762 C30.3568915,10.6523762 32.3681495,11.4779558 33.8808166,12.976964 C35.3935513,14.4760392 36.2266535,16.4690693 36.2266535,18.5890703 C36.2266535,20.7090714 35.3935513,22.7021014 33.8808166,24.2011766 C33.6518622,24.4281306 33.4112167,24.6393472 33.1606373,24.8348933 C33.7532968,24.9344075 34.3865031,25.0155056 35.0738395,25.0734328 C35.7565806,25.1309582 36.4287794,25.1600892 37.071717,25.1600892 C37.3836573,25.1600892 37.6872855,25.1526558 37.9846965,25.1395301 C38.9632942,23.7093648 39.6305599,22.0529151 39.8896541,20.2656773 C42.1795364,20.3607716 45.0725528,20.8162199 46.6833432,22.3640477 C45.5759417,18.4257357 42.3915287,17.1773212 39.8777604,16.8282178 C39.4206625,13.8307371 37.8147377,11.206803 35.5186382,9.41072538 C36.7466666,7.49303417 38.5912771,5.2376911 40.7495173,4.62922126 C36.7547759,3.61057337 34.0717922,5.71825235 32.5097255,7.70070146 C31.1795867,7.1853839 29.7319973,6.90217688 28.2176408,6.90217688 C26.6729417,6.90217688 25.197848,7.19690237 23.8458815,7.73204241 C22.7843655,5.71952474 21.7366354,3.0098718 22.2838148,0.85417688 C19.3949883,3.77444369 19.8970932,7.1324793 20.8494031,9.46436662 C18.5680357,11.2758468 16.9809652,13.9095582 16.5455598,16.9124634 C14.2557451,16.817369 11.3626612,16.3619207 9.75193835,14.8140929 C10.8592723,18.7524049 14.0436852,20.0008195 16.5574535,20.3499228" id="Fill-1" fill="#9B9B9B"></path>
            </g>
        </g>
    </g>
</svg>