<?xml version="1.0" encoding="UTF-8" standalone="no"?>
<svg width="22px" height="32px" viewBox="0 0 22 32" version="1.1" xmlns="http://www.w3.org/2000/svg" xmlns:xlink="http://www.w3.org/1999/xlink">
    <!-- Generator: Sketch 42 (36781) - http://www.bohemiancoding.com/sketch -->
    <title>Group 2</title>
    <desc>Created with Sketch.</desc>
    <defs></defs>
    <g id="Page-1" stroke="none" stroke-width="1" fill="none" fill-rule="evenodd">
        <g id="Artboard-2" transform="translate(-83.000000, -101.000000)" fill="#9B9B9B">
            <g id="Group-2" transform="translate(83.000000, 101.000000)">
                <g id="Group">
                    <path d="M2.539,12.715 C2.539,15.254 1.27,16.527 1.27,16.527 L3.813,16.527 C3.813,16.527 5.082,15.254 5.082,12.715 C5.082,10.168 3.813,8.898 3.813,8.898 C3.813,8.898 2.543,7.629 2.543,5.082 C2.543,2.539 3.813,1.269 3.813,1.269 C3.813,1.269 4.231,0.836 4.586,0 L2.043,0 C1.688,0.84 1.27,1.269 1.27,1.269 C1.27,1.269 0,2.539 0,5.082 C0,7.629 1.27,8.898 1.27,8.898 C1.27,8.898 2.539,10.168 2.539,12.715 Z" id="Fill-1"></path>
                    <path d="M10.539,12.715 C10.539,15.254 9.27,16.527 9.27,16.527 L11.813,16.527 C11.813,16.527 13.082,15.254 13.082,12.715 C13.082,10.168 11.813,8.898 11.813,8.898 C11.813,8.898 10.543,7.629 10.543,5.082 C10.543,2.539 11.813,1.269 11.813,1.269 C11.813,1.269 12.231,0.836 12.586,0 L10.043,0 C9.688,0.84 9.27,1.269 9.27,1.269 C9.27,1.269 8,2.539 8,5.082 C8,7.629 9.27,8.898 9.27,8.898 C9.27,8.898 10.539,10.168 10.539,12.715 Z" id="Fill-2"></path>
                    <path d="M18.531,12.715 C18.531,15.254 17.262,16.527 17.262,16.527 L19.809,16.527 C19.809,16.527 21.078,15.254 21.078,12.715 C21.078,10.168 19.809,8.898 19.809,8.898 C19.809,8.898 18.539,7.629 18.539,5.082 C18.539,2.539 19.809,1.269 19.809,1.269 C19.809,1.269 20.227,0.836 20.582,0 L18.039,0 C17.68,0.84 17.266,1.269 17.266,1.269 C17.266,1.269 16,2.539 16,5.082 C16,7.629 17.266,8.898 17.266,8.898 C17.266,8.898 18.531,10.168 18.531,12.715 Z" id="Fill-3"></path>
                </g>
                <g id="Group" transform="translate(0.099998, 15.099998)">
                    <path d="M2.539,12.715 C2.539,15.254 1.27,16.527 1.27,16.527 L3.813,16.527 C3.813,16.527 5.082,15.254 5.082,12.715 C5.082,10.168 3.813,8.898 3.813,8.898 C3.813,8.898 2.543,7.629 2.543,5.082 C2.543,2.539 3.813,1.269 3.813,1.269 C3.813,1.269 4.231,0.836 4.586,0 L2.043,0 C1.688,0.84 1.27,1.269 1.27,1.269 C1.27,1.269 0,2.539 0,5.082 C0,7.629 1.27,8.898 1.27,8.898 C1.27,8.898 2.539,10.168 2.539,12.715 Z" id="Fill-1"></path>
                    <path d="M10.539,12.715 C10.539,15.254 9.27,16.527 9.27,16.527 L11.813,16.527 C11.813,16.527 13.082,15.254 13.082,12.715 C13.082,10.168 11.813,8.898 11.813,8.898 C11.813,8.898 10.543,7.629 10.543,5.082 C10.543,2.539 11.813,1.269 11.813,1.269 C11.813,1.269 12.231,0.836 12.586,0 L10.043,0 C9.688,0.84 9.27,1.269 9.27,1.269 C9.27,1.269 8,2.539 8,5.082 C8,7.629 9.27,8.898 9.27,8.898 C9.27,8.898 10.539,10.168 10.539,12.715 Z" id="Fill-2"></path>
                    <path d="M18.531,12.715 C18.531,15.254 17.262,16.527 17.262,16.527 L19.809,16.527 C19.809,16.527 21.078,15.254 21.078,12.715 C21.078,10.168 19.809,8.898 19.809,8.898 C19.809,8.898 18.539,7.629 18.539,5.082 C18.539,2.539 19.809,1.269 19.809,1.269 C19.809,1.269 20.227,0.836 20.582,0 L18.039,0 C17.68,0.84 17.266,1.269 17.266,1.269 C17.266,1.269 16,2.539 16,5.082 C16,7.629 17.266,8.898 17.266,8.898 C17.266,8.898 18.531,10.168 18.531,12.715 Z" id="Fill-3"></path>
                </g>
            </g>
        </g>
    </g>
</svg>