<?xml version="1.0" encoding="UTF-8" standalone="no"?>
<svg width="44px" height="36px" viewBox="0 0 44 36" version="1.1" xmlns="http://www.w3.org/2000/svg" xmlns:xlink="http://www.w3.org/1999/xlink">
    <!-- Generator: Sketch 39.1 (31720) - http://www.bohemiancoding.com/sketch -->
    <title>Group 4</title>
    <desc>Created with Sketch.</desc>
    <defs></defs>
    <g id="Symbols" stroke="none" stroke-width="1" fill="none" fill-rule="evenodd">
        <g id="HOVER-B" transform="translate(-187.000000, -105.000000)">
            <g id="Group-4" transform="translate(187.000000, 105.000000)">
                <path d="M43.1262374,11.7431872 L40.5895534,11.7431872 C40.2374836,11.7431872 39.9529601,12.0277107 39.9529601,12.3797806 C39.9529601,12.7317944 40.2374836,13.0163739 40.5895534,13.0163739 L43.1262374,13.0163739 C43.4783072,13.0163739 43.7628307,12.7318504 43.7628307,12.3797806 C43.7628307,12.0277107 43.4783072,11.7431872 43.1262374,11.7431872" id="Fill-6" fill="#F6A623"></path>
                <path d="M37.9853175,6.76624924 C38.1493106,6.76624924 38.3084309,6.70357565 38.4338341,6.57817247 L40.2278445,4.7841621 C40.4737781,4.53817247 40.4737781,4.13311852 40.2278445,3.8871289 C39.9818549,3.64119529 39.5768009,3.64119529 39.3308113,3.8871289 L37.5368009,5.68113928 C37.2908673,5.9271289 37.2908673,6.33223886 37.5368009,6.57817247 C37.6622041,6.70357565 37.8261972,6.76624924 37.9853175,6.76624924" id="Fill-4" fill="#F6A623"></path>
                <path d="M38.4386509,18.2489014 C38.1927172,18.0029678 37.7876073,18.0029678 37.5416177,18.2489014 C37.295684,18.494835 37.295684,18.899945 37.5416177,19.1459346 L39.335628,20.939945 C39.4610312,21.0652922 39.6202076,21.1280217 39.7841446,21.1280217 C39.9481377,21.1280217 40.1072581,21.0652922 40.2326612,20.939945 C40.4785948,20.6939554 40.4785948,20.2888454 40.2326612,20.0429118 L38.4386509,18.2489014 Z" id="Fill-9" fill="#F6A623"></path>
                <path d="M23.4547688,12.379775 C23.4547688,12.0277051 23.1702453,11.7431816 22.8181754,11.7431816 L20.2863082,11.7431816 C19.9342384,11.7431816 19.6497149,12.0277051 19.6497149,12.379775 C19.6497149,12.7318448 19.9342384,13.0163683 20.2863082,13.0163683 L22.8229922,13.0163683 C23.175062,13.0163683 23.4547688,12.7318448 23.4547688,12.379775" id="Fill-11" fill="#F6A623"></path>
                <path d="M24.9738947,6.58298921 C25.0992979,6.70839239 25.2584183,6.77106597 25.4224113,6.77106597 C25.5863484,6.77106597 25.7455248,6.70839239 25.8709279,6.58298921 C26.1168615,6.3370556 26.1168615,5.93194564 25.8709279,5.68595602 L24.0769176,3.8871289 C23.8309279,3.64119529 23.425818,3.64119529 23.1798844,3.8871289 C22.9339507,4.13311852 22.9339507,4.53822848 23.1798844,4.7841621 L24.9738947,6.58298921 Z" id="Fill-13" fill="#F6A623"></path>
                <path d="M29.9864822,13.3156221 C31.6928951,13.3156221 33.1409966,14.5362728 33.4297768,16.218098 L33.7223655,17.9224387 C35.9830393,17.0986647 37.6039832,14.9303491 37.6039832,12.3849838 C37.6039832,9.13088609 34.954778,6.48728177 31.7062812,6.48728177 C28.4577844,6.48728177 25.8085792,9.12528523 25.8085792,12.3793829 C25.8085792,12.6980156 25.8342871,13.0106555 25.8831826,13.3156221 L29.9864822,13.3156221 Z" id="Fill-15" fill="#F6A623"></path>
                <path d="M31.70627,4.12827378 C32.0583398,4.12827378 32.3428634,3.84375027 32.3428634,3.49168042 L32.3428634,0.959813195 C32.3428634,0.607743349 32.0583398,0.323219834 31.70627,0.323219834 C31.3542001,0.323219834 31.0696766,0.607743349 31.0696766,0.959813195 L31.0696766,3.49649716 C31.0696766,3.848567 31.3542001,4.12827378 31.70627,4.12827378" id="Fill-1" fill="#F6A623"></path>
                <path d="M33.478101,33.4398135 C33.2927686,33.6597032 33.0215191,33.7857784 32.7339712,33.7857784 L27.3719351,33.7857784 L26.7412786,25.623034 L32.4871414,25.623034 L33.6931739,32.6477964 C33.7417893,32.9312557 33.6634333,33.2199239 33.478101,33.4398135 L33.478101,33.4398135 Z M2.14623705,33.4398135 C1.9609047,33.2199239 1.88249271,32.9312557 1.93116415,32.6477964 L3.13719661,25.623034 L9.1008767,25.623034 L8.27424627,33.7857784 L2.89042286,33.7857784 C2.60281888,33.7857784 2.33156939,33.6596471 2.14623705,33.4398135 L2.14623705,33.4398135 Z M4.67866436,16.6445808 C4.75909266,16.1760692 5.16246635,15.8359852 5.63786706,15.8359852 L10.0919483,15.8359852 L9.26531785,23.9987856 L3.41606326,23.9987856 L4.67866436,16.6445808 Z M18.7503125,23.9987856 L18.7503125,15.8359852 L24.3561539,15.8359852 L24.9867543,23.9987856 L18.7503125,23.9987856 Z M18.7503125,25.623034 L25.1122135,25.623034 L25.7428139,33.7857784 L18.7503125,33.7857784 L18.7503125,25.623034 Z M10.8979115,23.9987856 L11.724542,15.8359852 L17.1260641,15.8359852 L17.1260641,23.9987856 L10.8979115,23.9987856 Z M17.1260641,25.623034 L17.1260641,33.7857784 L9.90678396,33.7857784 L10.7334144,25.623034 L17.1260641,25.623034 Z M30.9457297,16.6445808 L32.2082748,23.9987856 L26.6158195,23.9987856 L25.985219,15.8359852 L29.986471,15.8359852 C30.4618157,15.8359852 30.8653014,16.1760692 30.9457297,16.6445808 L30.9457297,16.6445808 Z M35.2940107,32.3730184 L32.5465665,16.3697468 C32.3318297,15.1192996 31.255177,14.2117368 29.986471,14.2117368 L5.63786706,14.2117368 C4.36910502,14.2117368 3.29245235,15.1192996 3.07782753,16.3697468 L0.330327321,32.3730184 C0.200499465,33.1294141 0.409691459,33.8998119 0.904359114,34.4866136 C1.39902677,35.0734714 2.12288148,35.4100269 2.89042286,35.4100269 L32.7339712,35.4100269 C33.5014566,35.4100269 34.2253113,35.0734714 34.7199789,34.4866136 C35.2146466,33.8998119 35.4238946,33.1294141 35.2940107,32.3730184 L35.2940107,32.3730184 Z" id="Fill-17" fill="#9B9B9B"></path>
            </g>
        </g>
    </g>
</svg>