<?xml version="1.0" encoding="UTF-8" standalone="no"?>
<svg width="22px" height="22px" viewBox="0 0 22 22" version="1.1" xmlns="http://www.w3.org/2000/svg" xmlns:xlink="http://www.w3.org/1999/xlink">
    <!-- Generator: Sketch 39.1 (31720) - http://www.bohemiancoding.com/sketch -->
    <title>Group</title>
    <desc>Created with Sketch.</desc>
    <defs></defs>
    <g id="Page-1" stroke="none" stroke-width="1" fill="none" fill-rule="evenodd">
        <g id="Artboard" transform="translate(-180.000000, -208.000000)" fill="#F6A623">
            <g id="Group" transform="translate(180.000000, 208.000000)">
                <g id="Page-1">
                    <path d="M11.0781,5.4999 C8.0401,5.4999 5.5781,7.9619 5.5781,10.9999 C5.5781,14.0379 8.0401,16.4999 11.0781,16.4999 C14.1161,16.4999 16.5781,14.0379 16.5781,10.9999 C16.5781,7.9619 14.1161,5.4999 11.0781,5.4999" id="Fill-1"></path>
                    <path d="M11,4 C11.276,4 11.5,3.776 11.5,3.5 L11.5,0.5 C11.5,0.224 11.276,0 11,0 C10.724,0 10.5,0.224 10.5,0.5 L10.5,3.5 C10.5,3.776 10.724,4 11,4" id="Fill-3"></path>
                    <path d="M11,18 C10.724,18 10.5,18.224 10.5,18.5 L10.5,21.5 C10.5,21.776 10.724,22 11,22 C11.276,22 11.5,21.776 11.5,21.5 L11.5,18.5 C11.5,18.224 11.276,18 11,18" id="Fill-5"></path>
                    <path d="M16.6569,6.0502 L18.7779,3.9292 C18.9739,3.7332 18.9739,3.4172 18.7779,3.2222 C18.5829,3.0262 18.2669,3.0262 18.0709,3.2222 L15.9499,5.3432 C15.7539,5.5382 15.7539,5.8552 15.9499,6.0502 C16.1449,6.2452 16.4619,6.2452 16.6569,6.0502" id="Fill-7"></path>
                    <path d="M5.3431,15.9497 L3.2221,18.0707 C3.0261,18.2667 3.0261,18.5827 3.2221,18.7777 C3.4171,18.9737 3.7331,18.9737 3.9291,18.7777 L6.0501,16.6567 C6.2461,16.4617 6.2461,16.1447 6.0501,15.9497 C5.8551,15.7547 5.5381,15.7547 5.3431,15.9497" id="Fill-9"></path>
                    <path d="M16.6569,15.9497 C16.4619,15.7547 16.1449,15.7547 15.9499,15.9497 C15.7539,16.1447 15.7539,16.4617 15.9499,16.6567 L18.0709,18.7777 C18.2669,18.9737 18.5829,18.9737 18.7779,18.7777 C18.9739,18.5827 18.9739,18.2667 18.7779,18.0707 L16.6569,15.9497 Z" id="Fill-11"></path>
                    <path d="M5.3431,6.0502 C5.5381,6.2452 5.8551,6.2452 6.0501,6.0502 C6.2461,5.8552 6.2461,5.5382 6.0501,5.3432 L3.9291,3.2222 C3.7331,3.0262 3.4171,3.0262 3.2221,3.2222 C3.0261,3.4172 3.0261,3.7332 3.2221,3.9292 L5.3431,6.0502 Z" id="Fill-13"></path>
                    <path d="M4,10.8594 C4,10.5834 3.776,10.3594 3.5,10.3594 L0.5,10.3594 C0.224,10.3594 0,10.5834 0,10.8594 C0,11.1354 0.224,11.3594 0.5,11.3594 L3.5,11.3594 C3.776,11.3594 4,11.1354 4,10.8594" id="Fill-15"></path>
                    <path d="M21.5,10.3594 L18.5,10.3594 C18.224,10.3594 18,10.5834 18,10.8594 C18,11.1354 18.224,11.3594 18.5,11.3594 L21.5,11.3594 C21.776,11.3594 22,11.1354 22,10.8594 C22,10.5834 21.776,10.3594 21.5,10.3594" id="Fill-17"></path>
                </g>
            </g>
        </g>
    </g>
</svg>