<?xml version="1.0" encoding="UTF-8" standalone="no"?>
<svg width="26px" height="23px" viewBox="0 0 26 23" version="1.1" xmlns="http://www.w3.org/2000/svg" xmlns:xlink="http://www.w3.org/1999/xlink">
    <!-- Generator: Sketch 42 (36781) - http://www.bohemiancoding.com/sketch -->
    <title>Group 5</title>
    <desc>Created with Sketch.</desc>
    <defs></defs>
    <g id="Page-1" stroke="none" stroke-width="1" fill="none" fill-rule="evenodd">
        <g id="Artboard-2-Copy-7" transform="translate(-273.000000, -134.000000)" fill="#8B572A">
            <g id="STEP-2" transform="translate(267.000000, 122.000000)">
                <g id="Group-3">
                    <g id="CAN-CONTENTS" transform="translate(0.000000, 4.000000)">
                        <g id="Fill-1-+-Fill-2-Mask">
                            <g id="Group-5" transform="translate(6.000000, 8.000000)">
                                <path d="M25.5661969,11.4794363 L25.5661969,10.2039434 L21.4208449,10.2039434 L21.4208449,8.92845046 L25.2473237,8.92845046 L25.2473237,7.65295754 L21.4208449,7.65295754 L21.4208449,6.05859139 L24.9284505,6.05859139 C24.9284505,6.05859139 23.9203859,0 20.7830985,0 C17.645811,0 16.6377465,6.05859139 16.6377465,6.05859139 L20.145352,6.05859139 L20.145352,7.65295754 L16.3188732,7.65295754 L16.3188732,8.92845046 L20.145352,8.92845046 L20.145352,10.2039434 L16,10.2039434 L16,11.4794363 L20.145352,11.4794363 L20.145352,12.7549292 L16.6377465,12.7549292 L16.6377465,14.0304222 L20.145352,14.0304222 L20.145352,15.6247883 L17.2754929,15.6247883 L17.2754929,16.9002812 L20.145352,16.9002812 L20.145352,19.1323939 L17.5943662,22.6399994 L23.9718308,22.6399994 L21.4208449,19.1323939 L21.4208449,16.9002812 L24.290704,16.9002812 L24.290704,15.6247883 L21.4208449,15.6247883 L21.4208449,14.0304222 L24.9284505,14.0304222 L24.9284505,12.7549292 L21.4208449,12.7549292 L21.4208449,11.4794363 L25.5661969,11.4794363 Z M20.7830985,3.50760554 C20.7830985,2.97955147 21.2116641,2.55098585 21.7397182,2.55098585 C22.2677722,2.55098585 22.6963378,2.97955147 22.6963378,3.50760554 C22.6963378,4.03565961 22.2677722,4.46422523 21.7397182,4.46422523 C21.2116641,4.46422523 20.7830985,4.03565961 20.7830985,3.50760554 Z" id="Fill-1"></path>
                                <path d="M8.37030279,16.0571734 C8.37030279,14.5718033 9.16901078,13.2778266 10.3579173,12.5676217 C9.52520315,11.7484229 8.68202561,10.6087816 8.68202561,9.34706717 C8.68202561,7.64894074 9.94548399,6.17272608 11.3283998,5.3993047 C8.80279096,4.62457538 7.30259762,5.10981665 6.53266404,5.58328656 C6.64863365,4.88354511 7.08984134,3.83415094 8.6222969,3.21114126 L8.1287721,2 C6.04567888,2.84840925 5.34244963,4.41661484 5.20773305,5.58503046 C4.43474764,5.10632884 2.92234698,4.61585586 0.369707629,5.40976812 L0.369707629,5.41151202 C1.56166595,6.22547917 2.67384067,7.59444374 2.67384067,9.14782615 C2.67384067,10.4710132 1.77442223,11.6564319 0.870208051,12.4821704 C2.0198767,13.2451284 3.10632884,14.5513124 3.10632884,16.0349387 C3.10632884,17.8673457 1.62139466,19.4237799 0,20.0267347 L0,20.0507134 C0,20.0507134 2.93411833,22.3666178 5.86867263,20.4217289 C8.74175432,22.325636 11.6113482,20.149244 11.7321135,20.0555091 C9.84520952,19.5275422 8.37030279,18.061355 8.37030279,16.0571734 Z" id="Fill-2"></path>
                            </g>
                        </g>
                    </g>
                </g>
            </g>
        </g>
    </g>
</svg>