<?xml version="1.0" encoding="UTF-8" standalone="no"?>
<svg width="34px" height="40px" viewBox="0 0 34 40" version="1.1" xmlns="http://www.w3.org/2000/svg" xmlns:xlink="http://www.w3.org/1999/xlink">
    <!-- Generator: Sketch 39.1 (31720) - http://www.bohemiancoding.com/sketch -->
    <title>Group 4</title>
    <desc>Created with Sketch.</desc>
    <defs>
        <polygon id="path-1" points="33.3350233 39.1997425 33.3350233 0.491678934 2.14319034e-20 0.491678934 0 39.1997425 33.3350233 39.1997425"></polygon>
    </defs>
    <g id="Page-1" stroke="none" stroke-width="1" fill="none" fill-rule="evenodd">
        <g id="Artboard" transform="translate(-362.000000, -204.000000)">
            <g id="Group-4" transform="translate(362.000000, 204.000000)">
                <g id="Page-1">
                    <path d="M16.6676698,14.55416 C13.6108326,14.55416 11.132786,17.06136 11.132786,20.15416 C11.132786,23.24696 13.6108326,25.75416 16.6676698,25.75416 C19.724507,25.75416 22.2025535,23.24696 22.2025535,20.15416 C22.2025535,17.06136 19.724507,14.55416 16.6676698,14.55416" id="Fill-1" fill="#9B9B9B"></path>
                    <g id="Group-5" transform="translate(0.000000, 0.308400)">
                        <mask id="mask-2" fill="white">
                            <use xlink:href="#path-1"></use>
                        </mask>
                        <g id="Clip-4"></g>
                        <path d="M16.6676698,27.71088 C12.3812977,27.71088 8.89432093,24.18288 8.89432093,19.84528 C8.89432093,15.50928 12.3812977,11.98048 16.6676698,11.98048 C20.9540419,11.98048 24.4410186,15.50928 24.4410186,19.84528 C24.4410186,24.18288 20.9540419,27.71088 16.6676698,27.71088 M27.8473442,20.32288 C27.8536698,20.16368 27.8710651,20.00688 27.8710651,19.84528 C27.8710651,18.55168 27.6449256,17.31328 27.248786,16.15408 C27.8481349,14.47008 29.3757628,12.42288 32.8840884,10.37328 C34.9114372,9.18848 25.5859488,10.00848 22.6659023,10.28848 C21.5012047,9.53808 20.1949721,8.99488 18.7922744,8.72128 C17.6528791,7.35328 16.6676698,4.99248 16.6676698,0.90048 C16.6676698,-1.46592 12.7141814,7.09648 11.4901814,9.80368 C10.2440419,10.46368 9.14022791,11.35488 8.2238093,12.41888 C6.48348372,12.73808 3.96432093,12.42528 0.451251163,10.37328 C-1.57688837,9.18848 3.78878605,16.95088 5.48799535,19.36848 C5.48166977,19.52768 5.46427442,19.68448 5.46427442,19.84528 C5.46427442,21.13968 5.69041395,22.37808 6.08655349,23.53728 C5.48799535,25.22128 3.95957674,27.26928 0.451251163,29.31888 C-1.57609767,30.50288 7.7486,29.68368 10.6686465,29.40288 C11.8333442,30.15408 13.1403674,30.69728 14.5438558,30.97088 C15.6824605,32.33888 16.6676698,34.69968 16.6676698,38.79088 C16.6676698,41.15728 20.6211581,32.59648 21.8451581,29.88848 C23.090507,29.22768 24.1959023,28.33728 25.1115302,27.27248 C26.8518558,26.95328 29.3710186,27.26608 32.8840884,29.31888 C34.9122279,30.50288 29.5465535,22.74048 27.8473442,20.32288" id="Fill-3" fill="#9B9B9B" mask="url(#mask-2)"></path>
                    </g>
                </g>
            </g>
        </g>
    </g>
</svg>