
<svg width="336px" height="40px" viewBox="15 93 336 40" version="1.1" xmlns="http://www.w3.org/2000/svg" xmlns:xlink="http://www.w3.org/1999/xlink">
    <!-- Generator: Sketch 40.3 (33839) - http://www.bohemiancoding.com/sketch -->
    <desc>Created with Sketch.</desc>
    <defs></defs>
    <path d="M17.2519998,93.927902 C16.1113683,93.927902 15.188,94.7962493 15.188,96.0444986 L15.188,130.07286 C15.188,131.321109 16.1113683,132.189457 17.2519998,132.189457 L18.1210523,132.189457 C19.2616837,132.189457 20.2393678,131.321109 20.2393678,130.07286 L20.2393678,115.745129 L22.0317887,115.745129 C26.4313671,115.745129 29.6359984,112.977272 29.6359984,107.278742 L29.6359984,102.340017 C29.6359984,96.5872157 26.214104,93.927902 22.0317887,93.927902 L17.2519998,93.927902 Z M20.2393678,111.34912 L20.2393678,98.3239104 L21.4343151,98.3239104 C23.5526306,98.3239104 24.6389463,99.6807031 24.6389463,102.231473 L24.6389463,107.387286 C24.6389463,109.992328 23.5526306,111.34912 21.4343151,111.34912 L20.2393678,111.34912 Z M34.4898543,131.918098 L43.6692216,131.918098 C44.9728004,131.918098 45.7875372,130.995479 45.7875372,129.855773 L45.7875372,129.584415 C45.7875372,128.49898 44.9728004,127.52209 43.6692216,127.52209 L37.4772223,127.52209 L37.4772223,114.334064 L40.9534325,114.334064 C42.2570113,114.334064 43.071748,113.411445 43.071748,112.326011 L43.071748,112.054653 C43.071748,110.914947 42.2570113,109.992328 40.9534325,109.992328 L37.4772223,109.992328 L37.4772223,98.3239104 L43.6692216,98.3239104 C44.9728004,98.3239104 45.7875372,97.3470196 45.7875372,96.2615854 L45.7875372,95.9902269 C45.7875372,94.850521 44.9728004,93.927902 43.6692216,93.927902 L34.4898543,93.927902 C33.3492228,93.927902 32.4258545,94.7962493 32.4258545,96.0444986 L32.4258545,129.801501 C32.4258545,131.049751 33.3492228,131.918098 34.4898543,131.918098 L34.4898543,131.918098 Z M54.7693926,132.298 C59.44055,132.298 62.1563391,129.367328 62.1563391,124.862776 L62.1563391,100.983224 C62.1563391,96.4786723 59.44055,93.548 54.7693926,93.548 C50.0982352,93.548 47.3824461,96.4786723 47.3824461,100.983224 L47.3824461,124.862776 C47.3824461,129.367328 50.0982352,132.298 54.7693926,132.298 L54.7693926,132.298 Z M54.7693926,127.901992 C52.9769718,127.901992 52.4881297,126.436655 52.4881297,125.025591 L52.4881297,100.820409 C52.4881297,99.4093445 52.9769718,97.9440084 54.7693926,97.9440084 C56.5618135,97.9440084 57.0506555,99.4093445 57.0506555,100.820409 L57.0506555,125.025591 C57.0506555,126.436655 56.5618135,127.901992 54.7693926,127.901992 L54.7693926,127.901992 Z M67.6619844,93.927902 C66.521353,93.927902 65.5979847,94.7962493 65.5979847,96.0444986 L65.5979847,130.07286 C65.5979847,131.321109 66.521353,132.189457 67.6619844,132.189457 L68.531037,132.189457 C69.6716684,132.189457 70.6493525,131.321109 70.6493525,130.07286 L70.6493525,115.745129 L72.4417734,115.745129 C76.8413518,115.745129 80.045983,112.977272 80.045983,107.278742 L80.045983,102.340017 C80.045983,96.5872157 76.6240887,93.927902 72.4417734,93.927902 L67.6619844,93.927902 Z M70.6493525,111.34912 L70.6493525,98.3239104 L71.8442997,98.3239104 C73.9626153,98.3239104 75.048931,99.6807031 75.048931,102.231473 L75.048931,107.387286 C75.048931,109.992328 73.9626153,111.34912 71.8442997,111.34912 L70.6493525,111.34912 Z M84.8998389,131.918098 L93.3731011,131.918098 C94.6766799,131.918098 95.4914167,130.995479 95.4914167,129.855773 L95.4914167,129.584415 C95.4914167,128.49898 94.6766799,127.52209 93.3731011,127.52209 L87.887207,127.52209 L87.887207,95.7731401 C87.887207,94.5248908 86.9095229,93.6565434 85.7688915,93.6565434 L84.8998389,93.6565434 C83.7592075,93.6565434 82.8358392,94.5248908 82.8358392,95.7731401 L82.8358392,129.801501 C82.8358392,131.049751 83.7592075,131.918098 84.8998389,131.918098 L84.8998389,131.918098 Z M99.8021147,131.918098 L108.981482,131.918098 C110.285061,131.918098 111.099798,130.995479 111.099798,129.855773 L111.099798,129.584415 C111.099798,128.49898 110.285061,127.52209 108.981482,127.52209 L102.789483,127.52209 L102.789483,114.334064 L106.265693,114.334064 C107.569272,114.334064 108.384008,113.411445 108.384008,112.326011 L108.384008,112.054653 C108.384008,110.914947 107.569272,109.992328 106.265693,109.992328 L102.789483,109.992328 L102.789483,98.3239104 L108.981482,98.3239104 C110.285061,98.3239104 111.099798,97.3470196 111.099798,96.2615854 L111.099798,95.9902269 C111.099798,94.850521 110.285061,93.927902 108.981482,93.927902 L99.8021147,93.927902 C98.6614833,93.927902 97.738115,94.7962493 97.738115,96.0444986 L97.738115,129.801501 C97.738115,131.049751 98.6614833,131.918098 99.8021147,131.918098 L99.8021147,131.918098 Z M114.215548,108.038546 L116.279548,108.038546 C118.126285,108.038546 118.941022,107.115927 118.941022,105.379232 L118.941022,95.7188683 C118.941022,94.5791625 118.017653,93.6565434 116.877022,93.6565434 L115.301864,93.6565434 C114.161233,93.6565434 113.237864,94.5791625 113.237864,95.7188683 L113.237864,100.114877 C113.237864,101.308854 114.161233,102.231473 115.301864,102.231473 L115.573443,102.231473 L115.573443,104.6737 C115.573443,105.379232 115.247548,105.542048 114.595759,105.542048 L114.106917,105.542048 C113.509443,105.542048 113.237864,105.867678 113.237864,106.464667 L113.237864,107.170199 C113.237864,107.712916 113.563759,108.038546 114.215548,108.038546 L114.215548,108.038546 Z M129.117824,132.298 C133.408771,132.298 136.287508,129.584415 136.287508,124.971319 L136.287508,122.257734 C136.287508,117.481824 134.495087,115.093868 132.105192,112.488826 L129.389403,109.829513 C127.814246,108.092818 126.890877,105.704863 126.890877,103.805353 L126.890877,100.331964 C126.890877,98.9208992 127.651298,97.835465 129.063509,97.835465 C130.530035,97.835465 131.23614,98.9751709 131.23614,100.603322 L131.23614,105.053602 C131.23614,106.24758 132.105192,107.115927 133.30014,107.115927 L133.843297,107.115927 C134.983929,107.115927 135.907297,106.24758 135.907297,105.053602 L135.907297,100.657594 C135.907297,96.4244006 133.517403,93.548 129.009193,93.548 C124.718246,93.548 121.785194,96.153042 121.785194,100.766137 L121.785194,103.913896 C121.785194,107.984275 123.523299,111.02349 125.913193,113.465717 L128.79193,116.233574 C130.421403,118.133084 131.23614,120.086866 131.23614,121.986375 L131.23614,125.405493 C131.23614,126.979373 130.421403,127.956263 128.954877,127.956263 C127.379719,127.956263 126.619298,126.708014 126.619298,125.025591 L126.619298,119.978322 C126.619298,118.730073 125.69593,117.861725 124.500983,117.861725 L123.957825,117.861725 C122.817193,117.861725 121.893825,118.730073 121.893825,119.978322 L121.893825,125.025591 C121.893825,129.530143 124.66393,132.298 129.117824,132.298 L129.117824,132.298 Z M146.429746,93.927902 C145.289114,93.927902 144.365746,94.7962493 144.365746,96.0444986 L144.365746,130.07286 C144.365746,131.321109 145.289114,132.189457 146.429746,132.189457 L147.298798,132.189457 C148.43943,132.189457 149.417114,131.321109 149.417114,130.07286 L149.417114,115.745129 L151.209535,115.745129 C155.609113,115.745129 158.813744,112.977272 158.813744,107.278742 L158.813744,102.340017 C158.813744,96.5872157 155.39185,93.927902 151.209535,93.927902 L146.429746,93.927902 Z M149.417114,111.34912 L149.417114,98.3239104 L150.612061,98.3239104 C152.730377,98.3239104 153.816692,99.6807031 153.816692,102.231473 L153.816692,107.387286 C153.816692,109.992328 152.730377,111.34912 150.612061,111.34912 L149.417114,111.34912 Z M168.773284,132.298 C173.444441,132.298 176.16023,129.367328 176.16023,124.862776 L176.16023,100.983224 C176.16023,96.4786723 173.444441,93.548 168.773284,93.548 C164.102127,93.548 161.386337,96.4786723 161.386337,100.983224 L161.386337,124.862776 C161.386337,129.367328 164.102127,132.298 168.773284,132.298 L168.773284,132.298 Z M168.773284,127.901992 C166.980863,127.901992 166.492021,126.436655 166.492021,125.025591 L166.492021,100.820409 C166.492021,99.4093445 166.980863,97.9440084 168.773284,97.9440084 C170.565705,97.9440084 171.054547,99.4093445 171.054547,100.820409 L171.054547,125.025591 C171.054547,126.436655 170.565705,127.901992 168.773284,127.901992 L168.773284,127.901992 Z M194.973243,132.243728 C196.276821,132.243728 197.5804,131.429653 197.851979,129.584415 L201.165242,96.4244006 C201.382505,94.5791625 200.296189,93.6022717 198.829663,93.6022717 C197.689032,93.6022717 196.657032,94.4163473 196.494085,95.7731401 L194.701664,119.001431 L192.257453,95.8816835 C192.04019,94.5791625 191.116822,93.6565434 189.758927,93.6565434 C188.401033,93.6565434 187.369033,94.5791625 187.260401,95.8816835 L184.761875,119.001431 L183.186718,95.8274118 C183.078086,94.470619 182.046086,93.6565434 180.742507,93.6565434 C179.16735,93.6565434 177.972402,94.7962493 178.189666,96.6414874 L181.502928,129.584415 C181.720191,131.375381 183.02377,132.189457 184.381665,132.189457 C185.739559,132.189457 187.097454,131.375381 187.314717,129.584415 L189.650296,107.658644 L191.985875,129.584415 C192.257453,131.429653 193.561032,132.243728 194.973243,132.243728 L194.973243,132.243728 Z M205.801835,131.918098 L214.981202,131.918098 C216.284781,131.918098 217.099518,130.995479 217.099518,129.855773 L217.099518,129.584415 C217.099518,128.49898 216.284781,127.52209 214.981202,127.52209 L208.789203,127.52209 L208.789203,114.334064 L212.265413,114.334064 C213.568992,114.334064 214.383728,113.411445 214.383728,112.326011 L214.383728,112.054653 C214.383728,110.914947 213.568992,109.992328 212.265413,109.992328 L208.789203,109.992328 L208.789203,98.3239104 L214.981202,98.3239104 C216.284781,98.3239104 217.099518,97.3470196 217.099518,96.2615854 L217.099518,95.9902269 C217.099518,94.850521 216.284781,93.927902 214.981202,93.927902 L205.801835,93.927902 C204.661203,93.927902 203.737835,94.7962493 203.737835,96.0444986 L203.737835,129.801501 C203.737835,131.049751 204.661203,131.918098 205.801835,131.918098 L205.801835,131.918098 Z M224.506215,110.535045 L224.506215,98.3239104 L225.918426,98.3239104 C227.765162,98.3239104 228.96011,99.3550728 228.96011,101.851571 L228.96011,106.953112 C228.96011,109.449611 227.602215,110.535045 225.86411,110.535045 L224.506215,110.535045 Z M225.483899,114.82251 C227.330636,114.82251 228.525583,115.799401 228.579899,118.512986 L228.742846,126.056754 C228.797162,127.52209 228.905794,129.204513 229.068741,130.018588 C229.503267,131.538196 230.426636,132.189457 231.78453,132.189457 C233.251056,132.189457 234.174425,131.321109 234.174425,130.07286 C234.174425,129.475871 233.902846,128.119078 233.84853,126.111025 L233.685583,119.218518 C233.576951,115.799401 232.653583,113.519989 230.535267,112.59737 C232.925162,111.457664 233.957162,109.12398 233.957162,105.867678 L233.957162,101.7973 C233.957162,96.0444986 230.589583,93.927902 226.190005,93.927902 L221.518847,93.927902 C220.378216,93.927902 219.454847,94.7962493 219.454847,96.0444986 L219.454847,130.07286 C219.454847,131.321109 220.378216,132.189457 221.518847,132.189457 L222.3879,132.189457 C223.528531,132.189457 224.506215,131.321109 224.506215,130.07286 L224.506215,114.82251 L225.483899,114.82251 Z M249.042136,132.298 C253.333083,132.298 256.211819,129.584415 256.211819,124.971319 L256.211819,122.257734 C256.211819,117.481824 254.419399,115.093868 252.029504,112.488826 L249.313715,109.829513 C247.738557,108.092818 246.815189,105.704863 246.815189,103.805353 L246.815189,100.331964 C246.815189,98.9208992 247.57561,97.835465 248.98782,97.835465 C250.454346,97.835465 251.160452,98.9751709 251.160452,100.603322 L251.160452,105.053602 C251.160452,106.24758 252.029504,107.115927 253.224451,107.115927 L253.767609,107.115927 C254.908241,107.115927 255.831609,106.24758 255.831609,105.053602 L255.831609,100.657594 C255.831609,96.4244006 253.441714,93.548 248.933504,93.548 C244.642558,93.548 241.709505,96.153042 241.709505,100.766137 L241.709505,103.913896 C241.709505,107.984275 243.44761,111.02349 245.837505,113.465717 L248.716241,116.233574 C250.345715,118.133084 251.160452,120.086866 251.160452,121.986375 L251.160452,125.405493 C251.160452,126.979373 250.345715,127.956263 248.879189,127.956263 C247.304031,127.956263 246.54361,126.708014 246.54361,125.025591 L246.54361,119.978322 C246.54361,118.730073 245.620242,117.861725 244.425294,117.861725 L243.882137,117.861725 C242.741505,117.861725 241.818137,118.730073 241.818137,119.978322 L241.818137,125.025591 C241.818137,129.530143 244.588242,132.298 249.042136,132.298 L249.042136,132.298 Z M264.270306,132.189457 L264.922096,132.189457 C266.117043,132.189457 267.094727,131.266838 267.094727,130.018588 L267.094727,98.3239104 L270.082095,98.3239104 C271.385674,98.3239104 272.200411,97.3470196 272.200411,96.2615854 L272.200411,95.9902269 C272.200411,94.850521 271.385674,93.927902 270.082095,93.927902 L259.110307,93.927902 C257.806728,93.927902 256.991992,94.850521 256.991992,95.9902269 L256.991992,96.2615854 C256.991992,97.3470196 257.806728,98.3239104 259.110307,98.3239104 L262.097675,98.3239104 L262.097675,130.018588 C262.097675,131.266838 263.075359,132.189457 264.270306,132.189457 L264.270306,132.189457 Z M285.744792,132.189457 C287.265634,132.189457 288.514897,131.104022 288.189002,129.150241 L283.789424,96.4244006 C283.463529,94.5791625 281.942687,93.6565434 280.36753,93.6565434 C278.846688,93.6565434 277.325846,94.5791625 276.999951,96.4244006 L272.491741,129.313056 C272.11153,131.049751 273.252162,132.189457 274.718688,132.189457 C276.022267,132.189457 276.891319,131.483924 277.108583,130.181403 L277.760372,124.428602 L282.594477,124.428602 L283.19195,130.127132 C283.409213,131.429653 284.332582,132.189457 285.744792,132.189457 L285.744792,132.189457 Z M282.15995,120.303952 L278.249214,120.303952 L280.313214,102.394289 L282.15995,120.303952 Z M295.758647,132.189457 L296.410437,132.189457 C297.605384,132.189457 298.583068,131.266838 298.583068,130.018588 L298.583068,98.3239104 L301.570436,98.3239104 C302.874015,98.3239104 303.688752,97.3470196 303.688752,96.2615854 L303.688752,95.9902269 C303.688752,94.850521 302.874015,93.927902 301.570436,93.927902 L290.598648,93.927902 C289.295069,93.927902 288.480332,94.850521 288.480332,95.9902269 L288.480332,96.2615854 C288.480332,97.3470196 289.295069,98.3239104 290.598648,98.3239104 L293.586016,98.3239104 L293.586016,130.018588 C293.586016,131.266838 294.5637,132.189457 295.758647,132.189457 L295.758647,132.189457 Z M308.108081,132.189457 L308.977134,132.189457 C310.117765,132.189457 311.095449,131.321109 311.095449,130.07286 L311.095449,95.7731401 C311.095449,94.5248908 310.117765,93.6565434 308.977134,93.6565434 L308.108081,93.6565434 C306.96745,93.6565434 306.044082,94.5248908 306.044082,95.7731401 L306.044082,130.07286 C306.044082,131.321109 306.96745,132.189457 308.108081,132.189457 L308.108081,132.189457 Z M321.924042,132.298 C326.595199,132.298 329.310988,129.367328 329.310988,124.862776 L329.310988,100.983224 C329.310988,96.4786723 326.595199,93.548 321.924042,93.548 C317.252884,93.548 314.537095,96.4786723 314.537095,100.983224 L314.537095,124.862776 C314.537095,129.367328 317.252884,132.298 321.924042,132.298 L321.924042,132.298 Z M321.924042,127.901992 C320.131621,127.901992 319.642779,126.436655 319.642779,125.025591 L319.642779,100.820409 C319.642779,99.4093445 320.131621,97.9440084 321.924042,97.9440084 C323.716462,97.9440084 324.205304,99.4093445 324.205304,100.820409 L324.205304,125.025591 C324.205304,126.436655 323.716462,127.901992 321.924042,127.901992 L321.924042,127.901992 Z M334.816633,132.189457 L335.414107,132.189457 C336.554738,132.189457 337.478107,131.321109 337.478107,130.07286 L337.478107,119.27279 C337.478107,114.985325 337.315159,108.906894 337.097896,104.727972 L342.040633,129.313056 C342.58379,131.266838 343.670106,132.189457 345.408211,132.189457 C347.254948,132.189457 348.395579,130.72412 348.395579,128.987426 L348.395579,95.7731401 C348.395579,94.5248908 347.472211,93.6565434 346.331579,93.6565434 L345.734106,93.6565434 C344.593474,93.6565434 343.670106,94.5248908 343.670106,95.7731401 L343.670106,106.57321 C343.670106,110.860675 343.833053,116.939106 344.050316,121.118028 L339.10758,96.532944 C338.618738,94.5791625 337.532422,93.6565434 335.794317,93.6565434 C333.947581,93.6565434 332.752634,95.0676078 332.752634,96.8585742 L332.752634,130.07286 C332.752634,131.321109 333.676002,132.189457 334.816633,132.189457 L334.816633,132.189457 Z" id="PEOPLE’S-POWER-STATI" stroke="none" fill="#24CE7B" fill-rule="evenodd"></path>
</svg>
