<?xml version="1.0" encoding="UTF-8" standalone="no"?>
<svg width="478px" height="31px" viewBox="0 0 478 31" version="1.1" xmlns="http://www.w3.org/2000/svg" xmlns:xlink="http://www.w3.org/1999/xlink">
    <!-- Generator: Sketch 39.1 (31720) - http://www.bohemiancoding.com/sketch -->
    <title>PEOPLE’S POWER STATI</title>
    <desc>Created with Sketch.</desc>
    <defs></defs>
    <g id="Welcome" stroke="none" stroke-width="1" fill="none" fill-rule="evenodd">
        <g id="Desktop-HD-Copy-6" transform="translate(-141.000000, -43.000000)" fill="#24CE7B">
            <path d="M152.333369,65.0136148 C155.157906,65.0136148 157.083726,64.4144708 159.009546,63.0022026 C161.620103,61.0335863 163.117963,57.9522739 163.117963,54.7853695 C163.117963,50.3345849 160.336223,46.4829444 156.142214,45.0706762 C154.729946,44.6427161 153.317678,44.4715321 150.407549,44.4715321 L146.427521,44.4715321 C144.71568,44.4715321 143.560188,44.8994922 142.57588,45.8838003 C141.591572,46.9109044 141.292,47.8524165 141.292,49.9066248 L141.292,66.6398631 C141.292,69.5071954 141.377592,69.9351555 142.105124,71.0906476 C142.961044,72.4173238 144.458904,73.2304479 146.042357,73.2304479 C148.866893,73.2304479 150.749917,71.0478516 150.749917,67.7953552 L150.749917,65.912331 C150.749917,65.4843709 150.749917,65.3559829 150.664325,64.9708188 C151.049489,65.0136148 151.135081,65.0136148 151.563041,65.0136148 L152.333369,65.0136148 Z M150.749917,53.1591213 C151.092285,53.1591213 151.520245,53.1163252 151.648633,53.1163252 C153.146494,53.1163252 153.916822,53.6726733 153.916822,54.7425735 C153.916822,56.0692496 153.103698,56.4544137 150.664325,56.3688217 C150.664325,56.1120456 150.664325,55.9408616 150.707121,55.8124736 C150.749917,55.5556976 150.749917,55.3845136 150.749917,55.2989215 L150.749917,53.1591213 Z M178.755148,53.2447133 C180.509784,53.2447133 181.494092,52.9879372 182.350012,52.2176091 C183.33432,51.447281 183.890669,50.1634009 183.890669,48.7939287 C183.890669,46.8681084 182.69238,45.2846562 180.76656,44.6855121 C180.081824,44.4715321 179.867844,44.4715321 177.043308,44.4715321 L171.437031,44.4715321 C168.612495,44.4715321 168.398515,44.5143281 167.37141,44.9422882 C166.30151,45.3702482 165.488386,46.2689643 165.060426,47.2532725 C164.718058,48.1947846 164.675262,48.4943566 164.675262,50.890933 L164.675262,66.383087 C164.675262,68.3944993 164.675262,68.6512753 164.846446,69.3360114 C165.188814,70.8766676 166.001938,71.9037718 167.37141,72.5457118 C168.270126,72.9308759 168.869271,73.0164679 171.094663,73.0164679 L178.41278,73.0164679 C180.55258,73.0164679 181.4085,72.8024879 182.350012,71.9893638 C183.291524,71.2190357 183.847873,69.8923595 183.847873,68.6084793 C183.847873,67.3245991 183.291524,66.083515 182.350012,65.3131869 C181.365704,64.4144708 180.424192,64.2004907 178.41278,64.2004907 L174.946303,64.2004907 C174.475547,64.2004907 174.432751,64.2004907 174.004791,64.2860827 C174.090383,63.8581227 174.090383,63.7725307 174.090383,63.3445706 L174.090383,62.9166106 C174.090383,62.4886505 174.090383,62.4030585 174.004791,62.0178944 C174.432751,62.0606904 174.475547,62.0606904 174.946303,62.0606904 L177.428472,62.0606904 C178.926332,62.0606904 179.611068,61.9323024 180.3386,61.3759544 C181.151724,60.7340143 181.62248,59.7497061 181.62248,58.679806 C181.62248,56.6255977 180.081824,55.2561255 177.77084,55.2561255 L174.946303,55.2561255 C174.475547,55.2561255 174.432751,55.2561255 174.004791,55.3417175 C174.090383,54.9137575 174.090383,54.8281655 174.090383,54.4002054 L174.090383,54.1434294 C174.090383,53.6726733 174.090383,53.5870813 174.004791,53.1591213 C174.432751,53.2447133 174.475547,53.2447133 174.946303,53.2447133 L178.755148,53.2447133 Z M199.142689,43.744 C190.840264,43.744 184.164087,50.3773809 184.164087,58.594214 C184.164087,67.0250271 190.797468,73.744 199.228282,73.744 C207.487911,73.744 214.206884,66.9822311 214.206884,58.722602 C214.206884,50.4629729 207.487911,43.744 199.142689,43.744 L199.142689,43.744 Z M199.185485,53.1591213 C202.266798,53.1591213 204.791762,55.7268816 204.791762,58.765398 C204.791762,61.8467104 202.266798,64.3716748 199.185485,64.3716748 C196.104173,64.3716748 193.579209,61.8467104 193.579209,58.722602 C193.579209,55.6840856 196.104173,53.1591213 199.185485,53.1591213 L199.185485,53.1591213 Z M227.3619,65.0136148 C230.186437,65.0136148 232.112257,64.4144708 234.038077,63.0022026 C236.648633,61.0335863 238.146494,57.9522739 238.146494,54.7853695 C238.146494,50.3345849 235.364753,46.4829444 231.170745,45.0706762 C229.758476,44.6427161 228.346208,44.4715321 225.43608,44.4715321 L221.456051,44.4715321 C219.744211,44.4715321 218.588719,44.8994922 217.604411,45.8838003 C216.620103,46.9109044 216.320531,47.8524165 216.320531,49.9066248 L216.320531,66.6398631 C216.320531,69.5071954 216.406123,69.9351555 217.133655,71.0906476 C217.989575,72.4173238 219.487435,73.2304479 221.070887,73.2304479 C223.895424,73.2304479 225.778448,71.0478516 225.778448,67.7953552 L225.778448,65.912331 C225.778448,65.4843709 225.778448,65.3559829 225.692856,64.9708188 C226.07802,65.0136148 226.163612,65.0136148 226.591572,65.0136148 L227.3619,65.0136148 Z M225.778448,53.1591213 C226.120816,53.1591213 226.548776,53.1163252 226.677164,53.1163252 C228.175024,53.1163252 228.945352,53.6726733 228.945352,54.7425735 C228.945352,56.0692496 228.132228,56.4544137 225.692856,56.3688217 C225.692856,56.1120456 225.692856,55.9408616 225.735652,55.8124736 C225.778448,55.5556976 225.778448,55.3845136 225.778448,55.2989215 L225.778448,53.1591213 Z M249.118914,50.6769529 C249.118914,47.9380086 248.904934,47.0820884 248.049014,45.9693923 C247.23589,44.9422882 245.866418,44.2575521 244.411353,44.2575521 C241.586817,44.2575521 239.703793,46.3117603 239.703793,49.5642568 L239.703793,65.6555549 C239.703793,69.5927874 239.874977,70.2347275 240.987673,71.5614037 C241.929185,72.5457118 243.127473,73.0164679 244.967701,73.0164679 L253.954863,73.0164679 C255.623907,73.0164679 256.608215,72.7168959 257.464135,71.9037718 C258.362851,71.1334437 258.919199,69.8067675 258.919199,68.6084793 C258.919199,67.2390071 258.234463,65.869535 257.121767,65.0564108 C256.223051,64.4144708 255.324335,64.2004907 253.783679,64.2004907 L249.974834,64.2004907 C249.504078,64.2004907 249.461282,64.2004907 249.033322,64.2860827 C249.118914,63.8581227 249.118914,63.7725307 249.118914,63.3445706 L249.118914,50.6769529 Z M273.828852,53.2447133 C275.583488,53.2447133 276.567796,52.9879372 277.423717,52.2176091 C278.408025,51.447281 278.964373,50.1634009 278.964373,48.7939287 C278.964373,46.8681084 277.766085,45.2846562 275.840264,44.6855121 C275.155528,44.4715321 274.941548,44.4715321 272.117012,44.4715321 L266.510735,44.4715321 C263.686199,44.4715321 263.472219,44.5143281 262.445115,44.9422882 C261.375214,45.3702482 260.56209,46.2689643 260.13413,47.2532725 C259.791762,48.1947846 259.748966,48.4943566 259.748966,50.890933 L259.748966,66.383087 C259.748966,68.3944993 259.748966,68.6512753 259.92015,69.3360114 C260.262518,70.8766676 261.075642,71.9037718 262.445115,72.5457118 C263.343831,72.9308759 263.942975,73.0164679 266.168367,73.0164679 L273.486484,73.0164679 C275.626284,73.0164679 276.482204,72.8024879 277.423717,71.9893638 C278.365229,71.2190357 278.921577,69.8923595 278.921577,68.6084793 C278.921577,67.3245991 278.365229,66.083515 277.423717,65.3131869 C276.439408,64.4144708 275.497896,64.2004907 273.486484,64.2004907 L270.020008,64.2004907 C269.549252,64.2004907 269.506456,64.2004907 269.078495,64.2860827 C269.164087,63.8581227 269.164087,63.7725307 269.164087,63.3445706 L269.164087,62.9166106 C269.164087,62.4886505 269.164087,62.4030585 269.078495,62.0178944 C269.506456,62.0606904 269.549252,62.0606904 270.020008,62.0606904 L272.502176,62.0606904 C274.000036,62.0606904 274.684772,61.9323024 275.412304,61.3759544 C276.225428,60.7340143 276.696185,59.7497061 276.696185,58.679806 C276.696185,56.6255977 275.155528,55.2561255 272.844544,55.2561255 L270.020008,55.2561255 C269.549252,55.2561255 269.506456,55.2561255 269.078495,55.3417175 C269.164087,54.9137575 269.164087,54.8281655 269.164087,54.4002054 L269.164087,54.1434294 C269.164087,53.6726733 269.164087,53.5870813 269.078495,53.1591213 C269.506456,53.2447133 269.549252,53.2447133 270.020008,53.2447133 L273.828852,53.2447133 Z M281.035224,51.7040571 C281.035224,51.7040571 280.949632,51.8752411 280.86404,52.1748131 C280.564468,52.8595492 280.393284,53.4586933 280.393284,53.8438573 C280.393284,54.7425735 281.377592,55.5556976 282.404696,55.5556976 C283.64578,55.5556976 284.116536,55.0421455 285.742785,51.8752411 C286.769889,49.9494208 287.112257,48.9223167 287.112257,47.9380086 C287.112257,45.9693923 285.186437,44.1719601 283.175024,44.1719601 C280.992428,44.1719601 279.066608,46.0977803 279.066608,48.2375806 C279.066608,49.6070528 279.79414,50.890933 281.035224,51.7040571 L281.035224,51.7040571 Z M291.494092,62.2318745 C289.05472,62.2318745 287.214492,64.0721027 287.214492,66.511475 C287.214492,70.5770956 291.879256,73.744 297.913493,73.744 C301.465562,73.744 304.033322,72.8452839 305.916346,70.8766676 C307.670982,69.1648274 308.655291,66.6398631 308.655291,64.0293067 C308.655291,61.3759544 307.542594,58.765398 305.787958,57.3531298 C304.461282,56.2404337 302.107502,55.0849415 299.710925,54.3146134 C297.485533,53.6298773 296.843593,53.2019173 296.843593,52.3887932 C296.843593,51.7896491 297.399941,51.233301 297.999085,51.233301 C298.512637,51.233301 298.983393,51.490077 299.967701,52.2604051 C301.508358,53.5014893 302.578258,53.9294494 303.819342,53.9294494 C306.001938,53.9294494 307.542594,52.3032011 307.542594,50.0350128 C307.542594,46.5257404 303.51977,43.744 298.384249,43.744 C292.136032,43.744 287.856432,47.5956405 287.856432,53.1591213 C287.856432,57.0963538 289.91064,59.7925021 294.104649,61.2903623 L296.629613,62.1890785 C297.785105,62.6170385 298.041881,62.7026305 298.255861,62.8738146 C298.812209,63.2161826 299.026189,63.6013466 299.026189,64.1148987 C299.026189,64.8424308 298.512637,65.3131869 297.827901,65.3131869 C297.143165,65.3131869 296.886389,65.1847989 294.874977,63.6013466 C293.591097,62.6170385 292.649584,62.2318745 291.494092,62.2318745 L291.494092,62.2318745 Z M330.172171,65.0136148 C332.996708,65.0136148 334.922528,64.4144708 336.848348,63.0022026 C339.458904,61.0335863 340.956765,57.9522739 340.956765,54.7853695 C340.956765,50.3345849 338.175024,46.4829444 333.981016,45.0706762 C332.568748,44.6427161 331.156479,44.4715321 328.246351,44.4715321 L324.266322,44.4715321 C322.554482,44.4715321 321.39899,44.8994922 320.414682,45.8838003 C319.430374,46.9109044 319.130802,47.8524165 319.130802,49.9066248 L319.130802,66.6398631 C319.130802,69.5071954 319.216394,69.9351555 319.943926,71.0906476 C320.799846,72.4173238 322.297706,73.2304479 323.881158,73.2304479 C326.705695,73.2304479 328.588719,71.0478516 328.588719,67.7953552 L328.588719,65.912331 C328.588719,65.4843709 328.588719,65.3559829 328.503127,64.9708188 C328.888291,65.0136148 328.973883,65.0136148 329.401843,65.0136148 L330.172171,65.0136148 Z M328.588719,53.1591213 C328.931087,53.1591213 329.359047,53.1163252 329.487435,53.1163252 C330.985295,53.1163252 331.755623,53.6726733 331.755623,54.7425735 C331.755623,56.0692496 330.942499,56.4544137 328.503127,56.3688217 C328.503127,56.1120456 328.503127,55.9408616 328.545923,55.8124736 C328.588719,55.5556976 328.588719,55.3845136 328.588719,55.2989215 L328.588719,53.1591213 Z M356.422766,43.744 C348.12034,43.744 341.444164,50.3773809 341.444164,58.594214 C341.444164,67.0250271 348.077544,73.744 356.508358,73.744 C364.767987,73.744 371.48696,66.9822311 371.48696,58.722602 C371.48696,50.4629729 364.767987,43.744 356.422766,43.744 L356.422766,43.744 Z M356.465562,53.1591213 C359.546874,53.1591213 362.071838,55.7268816 362.071838,58.765398 C362.071838,61.8467104 359.546874,64.3716748 356.465562,64.3716748 C353.384249,64.3716748 350.859285,61.8467104 350.859285,58.722602 C350.859285,55.6840856 353.384249,53.1591213 356.465562,53.1591213 L356.465562,53.1591213 Z M397.437982,55.8124736 C396.967226,54.1862254 396.881634,53.8438573 396.239694,52.0464251 L394.870222,47.9380086 C393.971505,45.4558402 392.473645,44.2575521 390.162661,44.2575521 C387.894473,44.2575521 386.396612,45.4130442 385.626284,47.8096205 L384.214016,51.8752411 C383.657668,53.6726733 383.52928,54.0150414 383.144116,55.5984936 L383.015728,55.5984936 C382.45938,54.0578374 382.330992,53.6298773 381.646256,51.9608331 L380.062804,48.0663966 C379.035699,45.5414322 377.366655,44.2575521 375.226855,44.2575521 C372.616299,44.2575521 370.476498,46.2261683 370.476498,48.7083367 C370.476498,49.2646847 370.647682,49.9922168 370.99005,50.890933 L378.265371,69.9779515 C379.078495,72.1177518 380.619152,73.2304479 382.758952,73.2304479 C384.855956,73.2304479 386.439408,71.9465678 387.252533,69.5927874 L389.092761,63.9865107 C389.691905,62.1890785 389.820293,61.7183224 390.291049,60.0064822 L390.376641,60.0064822 C390.847397,61.7183224 391.018581,62.1890785 391.617725,63.9865107 L393.543545,69.6355835 C394.313874,71.9893638 395.940122,73.2304479 398.079922,73.2304479 C400.219722,73.2304479 401.717583,72.0749558 402.659095,69.5499914 L409.378068,51.190505 C409.848824,49.9922168 409.977212,49.4786648 409.977212,48.9223167 C409.977212,46.2689643 407.880207,44.2575521 405.226855,44.2575521 C403.172647,44.2575521 401.375214,45.5414322 400.604886,47.5100485 L398.85025,52.1320171 C398.20831,53.8010613 398.037126,54.1862254 397.56637,55.8124736 L397.437982,55.8124736 Z M424.844068,53.2447133 C426.598705,53.2447133 427.583013,52.9879372 428.438933,52.2176091 C429.423241,51.447281 429.979589,50.1634009 429.979589,48.7939287 C429.979589,46.8681084 428.781301,45.2846562 426.855481,44.6855121 C426.170745,44.4715321 425.956765,44.4715321 423.132228,44.4715321 L417.525952,44.4715321 C414.701415,44.4715321 414.487435,44.5143281 413.460331,44.9422882 C412.390431,45.3702482 411.577307,46.2689643 411.149347,47.2532725 C410.806979,48.1947846 410.764183,48.4943566 410.764183,50.890933 L410.764183,66.383087 C410.764183,68.3944993 410.764183,68.6512753 410.935367,69.3360114 C411.277735,70.8766676 412.090859,71.9037718 413.460331,72.5457118 C414.359047,72.9308759 414.958191,73.0164679 417.183583,73.0164679 L424.5017,73.0164679 C426.641501,73.0164679 427.497421,72.8024879 428.438933,71.9893638 C429.380445,71.2190357 429.936793,69.8923595 429.936793,68.6084793 C429.936793,67.3245991 429.380445,66.083515 428.438933,65.3131869 C427.454625,64.4144708 426.513113,64.2004907 424.5017,64.2004907 L421.035224,64.2004907 C420.564468,64.2004907 420.521672,64.2004907 420.093712,64.2860827 C420.179304,63.8581227 420.179304,63.7725307 420.179304,63.3445706 L420.179304,62.9166106 C420.179304,62.4886505 420.179304,62.4030585 420.093712,62.0178944 C420.521672,62.0606904 420.564468,62.0606904 421.035224,62.0606904 L423.517392,62.0606904 C425.015253,62.0606904 425.699989,61.9323024 426.427521,61.3759544 C427.240645,60.7340143 427.711401,59.7497061 427.711401,58.679806 C427.711401,56.6255977 426.170745,55.2561255 423.85976,55.2561255 L421.035224,55.2561255 C420.564468,55.2561255 420.521672,55.2561255 420.093712,55.3417175 C420.179304,54.9137575 420.179304,54.8281655 420.179304,54.4002054 L420.179304,54.1434294 C420.179304,53.6726733 420.179304,53.5870813 420.093712,53.1591213 C420.521672,53.2447133 420.564468,53.2447133 421.035224,53.2447133 L424.844068,53.2447133 Z M450.324335,62.0178944 C452.464135,59.5785221 453.320055,57.4387218 453.320055,54.7425735 C453.320055,50.2061969 450.367131,46.2689643 446.08753,44.9850842 C444.760854,44.5999201 443.73375,44.4715321 441.251582,44.4715321 L437.314349,44.4715321 C435.046161,44.4715321 434.104649,44.7283081 433.034748,45.6698203 C431.964848,46.6969244 431.494092,47.8952126 431.494092,49.9066248 L431.494092,67.4957832 C431.494092,71.0478516 433.291525,73.2304479 436.287245,73.2304479 C438.897801,73.2304479 440.909214,71.1762397 440.909214,68.4800913 L440.909214,66.554271 C440.909214,65.5699629 440.866418,65.2703909 440.780826,64.3288787 L440.866418,64.2860827 C441.679542,65.8267389 441.850726,66.169107 442.87783,67.8381512 L444.80365,71.0478516 C445.702366,72.5029158 447.029042,73.2304479 448.698087,73.2304479 C451.351439,73.2304479 453.405647,71.2190357 453.405647,68.6084793 C453.405647,67.6241712 453.063279,66.468679 452.506931,65.5699629 L450.324335,62.0178944 Z M441.80793,56.3688217 C441.636746,56.3688217 441.251582,56.3688217 440.823622,56.4116177 C440.909214,56.0264536 440.909214,55.8980656 440.909214,55.4701056 L440.909214,54.0578374 C440.909214,53.5870813 440.909214,53.5014893 440.823622,53.1163252 C441.465562,53.1591213 441.636746,53.1591213 442.064706,53.1591213 C443.391382,53.1591213 444.118914,53.7582653 444.118914,54.8281655 C444.118914,55.8552696 443.434178,56.3688217 441.979114,56.3688217 L441.80793,56.3688217 Z M466.491715,62.2318745 C464.052342,62.2318745 462.212114,64.0721027 462.212114,66.511475 C462.212114,70.5770956 466.876879,73.744 472.911116,73.744 C476.463184,73.744 479.030944,72.8452839 480.913969,70.8766676 C482.668605,69.1648274 483.652913,66.6398631 483.652913,64.0293067 C483.652913,61.3759544 482.540217,58.765398 480.785581,57.3531298 C479.458904,56.2404337 477.105124,55.0849415 474.708548,54.3146134 C472.483156,53.6298773 471.841215,53.2019173 471.841215,52.3887932 C471.841215,51.7896491 472.397563,51.233301 472.996708,51.233301 C473.51026,51.233301 473.981016,51.490077 474.965324,52.2604051 C476.50598,53.5014893 477.57588,53.9294494 478.816964,53.9294494 C480.999561,53.9294494 482.540217,52.3032011 482.540217,50.0350128 C482.540217,46.5257404 478.517392,43.744 473.381872,43.744 C467.133655,43.744 462.854054,47.5956405 462.854054,53.1591213 C462.854054,57.0963538 464.908262,59.7925021 469.102271,61.2903623 L471.627235,62.1890785 C472.782728,62.6170385 473.039504,62.7026305 473.253484,62.8738146 C473.809832,63.2161826 474.023812,63.6013466 474.023812,64.1148987 C474.023812,64.8424308 473.51026,65.3131869 472.825524,65.3131869 C472.140787,65.3131869 471.884011,65.1847989 469.872599,63.6013466 C468.588719,62.6170385 467.647207,62.2318745 466.491715,62.2318745 L466.491715,62.2318745 Z M501.94345,53.2447133 C503.612495,53.2447133 504.725191,52.9451412 505.452723,52.3459971 C506.479827,51.532873 507.121767,50.1206049 507.121767,48.8367247 C507.121767,46.5685364 505.538315,44.8139001 503.141738,44.5143281 C502.628186,44.4715321 502.628186,44.4715321 500.103222,44.4715321 L490.602509,44.4715321 C486.83646,44.4715321 486.451296,44.5143281 485.509784,44.9422882 C484.097516,45.5842282 483.070412,47.2532725 483.070412,48.8795207 C483.070412,49.9494208 483.498372,51.019321 484.2687,51.8752411 C485.167416,52.8595492 486.19452,53.2447133 487.90636,53.2447133 L489.532609,53.2447133 C490.003365,53.2447133 490.088957,53.2447133 490.474121,53.1591213 C490.431325,53.5870813 490.431325,53.6726733 490.431325,54.1434294 L490.431325,67.5813752 C490.431325,69.4643994 490.602509,70.2775235 491.287245,71.2618317 C492.143165,72.5457118 493.598229,73.2304479 495.138885,73.2304479 C496.765134,73.2304479 498.177402,72.4601198 499.033322,71.0906476 C499.675262,70.1063395 499.846446,69.2076234 499.846446,67.4529872 L499.846446,54.1434294 C499.846446,53.6726733 499.846446,53.5870813 499.760854,53.1591213 C500.188814,53.2447133 500.274406,53.2447133 500.702366,53.2447133 L501.94345,53.2447133 Z M519.977212,69.2932154 C521.346684,72.2033438 522.587768,73.2304479 524.770364,73.2304479 C527.380921,73.2304479 529.520721,71.1762397 529.520721,68.5656833 C529.520721,67.7953552 529.349537,66.9822311 529.007169,66.297495 L519.977212,47.1248845 C519.164088,45.2846562 517.537839,44.2575521 515.569223,44.2575521 C513.686199,44.2575521 512.059951,45.2846562 511.246826,47.0392924 L502.302461,66.040719 C501.917297,66.8538431 501.746113,67.7097632 501.746113,68.5656833 C501.746113,71.1762397 503.757525,73.2304479 506.410878,73.2304479 C508.679066,73.2304479 510.048538,72.1177518 511.246826,69.2932154 L519.977212,69.2932154 Z M515.612019,58.893786 C515.954387,60.0064822 516.467939,61.0763823 517.195471,62.5314465 C516.510735,62.4886505 516.339551,62.4886505 515.569223,62.4886505 C514.798895,62.4886505 514.627711,62.4886505 513.942975,62.5314465 C514.713303,61.0763823 515.184059,60.0064822 515.569223,58.893786 L515.612019,58.893786 Z M543.018106,53.2447133 C544.68715,53.2447133 545.799846,52.9451412 546.527378,52.3459971 C547.554482,51.532873 548.196422,50.1206049 548.196422,48.8367247 C548.196422,46.5685364 546.61297,44.8139001 544.216394,44.5143281 C543.702842,44.4715321 543.702842,44.4715321 541.177877,44.4715321 L531.677164,44.4715321 C527.911116,44.4715321 527.525952,44.5143281 526.584439,44.9422882 C525.172171,45.5842282 524.145067,47.2532725 524.145067,48.8795207 C524.145067,49.9494208 524.573027,51.019321 525.343355,51.8752411 C526.242071,52.8595492 527.269175,53.2447133 528.981016,53.2447133 L530.607264,53.2447133 C531.07802,53.2447133 531.163612,53.2447133 531.548776,53.1591213 C531.50598,53.5870813 531.50598,53.6726733 531.50598,54.1434294 L531.50598,67.5813752 C531.50598,69.4643994 531.677164,70.2775235 532.3619,71.2618317 C533.21782,72.5457118 534.672884,73.2304479 536.213541,73.2304479 C537.839789,73.2304479 539.252057,72.4601198 540.107977,71.0906476 C540.749917,70.1063395 540.921101,69.2076234 540.921101,67.4529872 L540.921101,54.1434294 C540.921101,53.6726733 540.921101,53.5870813 540.835509,53.1591213 C541.263469,53.2447133 541.349061,53.2447133 541.777021,53.2447133 L543.018106,53.2447133 Z M558.569699,50.1206049 C558.569699,47.7668245 558.312923,46.8253124 557.37141,45.7554123 C556.51549,44.7711041 555.23161,44.2575521 553.862138,44.2575521 C552.492666,44.2575521 551.251582,44.7711041 550.352865,45.7554123 C549.411353,46.8681084 549.154577,47.7240285 549.154577,50.0778088 L549.154577,67.7953552 C549.154577,69.7639715 549.496945,70.7910756 550.352865,71.7325877 C551.251582,72.6313039 552.621054,73.2304479 553.904934,73.2304479 C555.146018,73.2304479 556.51549,72.6313039 557.37141,71.6469957 C558.227331,70.6626876 558.569699,69.5927874 558.569699,67.7953552 L558.569699,50.1206049 Z M575.619152,43.744 C567.316727,43.744 560.64055,50.3773809 560.64055,58.594214 C560.64055,67.0250271 567.273931,73.744 575.704744,73.744 C583.964373,73.744 590.683346,66.9822311 590.683346,58.722602 C590.683346,50.4629729 583.964373,43.744 575.619152,43.744 L575.619152,43.744 Z M575.661948,53.1591213 C578.74326,53.1591213 581.268224,55.7268816 581.268224,58.765398 C581.268224,61.8467104 578.74326,64.3716748 575.661948,64.3716748 C572.580635,64.3716748 570.055671,61.8467104 570.055671,58.722602 C570.055671,55.6840856 572.580635,53.1591213 575.661948,53.1591213 L575.661948,53.1591213 Z M602.083726,61.5043424 C603.068034,62.9594066 603.282014,63.2589786 604.480302,64.7996348 L609.573027,71.3046277 C610.557335,72.5885078 611.798419,73.2304479 613.29628,73.2304479 C614.751344,73.2304479 616.120816,72.5885078 616.93394,71.4758117 C617.78986,70.4059116 618.00384,69.4643994 618.00384,67.2390071 L618.00384,49.7354408 C618.00384,47.9380086 617.704268,46.9537004 616.891144,45.9693923 C615.992428,44.8566961 614.708548,44.2575521 613.29628,44.2575521 C611.755623,44.2575521 610.300559,45.0278802 609.444639,46.2689643 C608.759903,47.2532725 608.588719,48.1519886 608.588719,50.0350128 L608.588719,52.6455692 C608.588719,54.0150414 608.588719,54.3146134 608.717107,55.5129016 L608.631515,55.5556976 C607.647207,54.1434294 607.390431,53.8438573 606.149347,52.3459971 L601.099418,46.1405763 C599.986722,44.8139001 598.959618,44.2575521 597.590146,44.2575521 C594.594425,44.2575521 592.625809,46.2689643 592.625809,49.3074807 L592.625809,67.3673951 C592.625809,69.5071954 592.882585,70.3203195 593.652913,71.3902197 C594.551629,72.5457118 595.921101,73.2304479 597.418962,73.2304479 C598.83123,73.2304479 600.157906,72.5885078 601.056622,71.5186077 C601.82695,70.5342996 602.126522,69.5927874 602.126522,67.7525592 L602.126522,64.7140428 C602.126522,63.3445706 602.126522,62.9166106 601.955338,61.5471384 L602.083726,61.5043424 Z" id="PEOPLE’S-POWER-STATI"></path>
        </g>
    </g>
</svg>