<?xml version="1.0" encoding="UTF-8" standalone="no"?>
<svg width="252px" height="55px" viewBox="0 0 252 55" version="1.1" xmlns="http://www.w3.org/2000/svg" xmlns:xlink="http://www.w3.org/1999/xlink">
    <!-- Generator: Sketch 39.1 (31720) - http://www.bohemiancoding.com/sketch -->
    <title>PEOPLE’S POWER STATI</title>
    <desc>Created with Sketch.</desc>
    <defs></defs>
    <g id="Symbols" stroke="none" stroke-width="1" fill="none" fill-rule="evenodd">
        <g id="LOGO-LOCK-UP" transform="translate(-1.000000, -2.000000)" fill="#24CE7B">
            <path d="M10.656,20.268 C13.032,20.268 14.652,19.764 16.272,18.576 C18.468,16.92 19.728,14.328 19.728,11.664 C19.728,7.92 17.388,4.68 13.86,3.492 C12.672,3.132 11.484,2.988 9.036,2.988 L5.688,2.988 C4.248,2.988 3.276,3.348 2.448,4.176 C1.62,5.04 1.368,5.832 1.368,7.56 L1.368,21.636 C1.368,24.048 1.44,24.408 2.052,25.38 C2.772,26.496 4.032,27.18 5.364,27.18 C7.74,27.18 9.324,25.344 9.324,22.608 L9.324,21.024 C9.324,20.664 9.324,20.556 9.252,20.232 C9.576,20.268 9.648,20.268 10.008,20.268 L10.656,20.268 Z M9.324,10.296 C9.612,10.296 9.972,10.26 10.08,10.26 C11.34,10.26 11.988,10.728 11.988,11.628 C11.988,12.744 11.304,13.068 9.252,12.996 C9.252,12.78 9.252,12.636 9.288,12.528 C9.324,12.312 9.324,12.168 9.324,12.096 L9.324,10.296 Z M32.8810909,10.368 C34.3570909,10.368 35.1850909,10.152 35.9050909,9.504 C36.7330909,8.856 37.2010909,7.776 37.2010909,6.624 C37.2010909,5.004 36.1930909,3.672 34.5730909,3.168 C33.9970909,2.988 33.8170909,2.988 31.4410909,2.988 L26.7250909,2.988 C24.3490909,2.988 24.1690909,3.024 23.3050909,3.384 C22.4050909,3.744 21.7210909,4.5 21.3610909,5.328 C21.0730909,6.12 21.0370909,6.372 21.0370909,8.388 L21.0370909,21.42 C21.0370909,23.112 21.0370909,23.328 21.1810909,23.904 C21.4690909,25.2 22.1530909,26.064 23.3050909,26.604 C24.0610909,26.928 24.5650909,27 26.4370909,27 L32.5930909,27 C34.3930909,27 35.1130909,26.82 35.9050909,26.136 C36.6970909,25.488 37.1650909,24.372 37.1650909,23.292 C37.1650909,22.212 36.6970909,21.168 35.9050909,20.52 C35.0770909,19.764 34.2850909,19.584 32.5930909,19.584 L29.6770909,19.584 C29.2810909,19.584 29.2450909,19.584 28.8850909,19.656 C28.9570909,19.296 28.9570909,19.224 28.9570909,18.864 L28.9570909,18.504 C28.9570909,18.144 28.9570909,18.072 28.8850909,17.748 C29.2450909,17.784 29.2810909,17.784 29.6770909,17.784 L31.7650909,17.784 C33.0250909,17.784 33.6010909,17.676 34.2130909,17.208 C34.8970909,16.668 35.2930909,15.84 35.2930909,14.94 C35.2930909,13.212 33.9970909,12.06 32.0530909,12.06 L29.6770909,12.06 C29.2810909,12.06 29.2450909,12.06 28.8850909,12.132 C28.9570909,11.772 28.9570909,11.7 28.9570909,11.34 L28.9570909,11.124 C28.9570909,10.728 28.9570909,10.656 28.8850909,10.296 C29.2450909,10.368 29.2810909,10.368 29.6770909,10.368 L32.8810909,10.368 Z M50.0301818,2.376 C43.0461818,2.376 37.4301818,7.956 37.4301818,14.868 C37.4301818,21.96 43.0101818,27.612 50.1021818,27.612 C57.0501818,27.612 62.7021818,21.924 62.7021818,14.976 C62.7021818,8.028 57.0501818,2.376 50.0301818,2.376 L50.0301818,2.376 Z M50.0661818,10.296 C52.6581818,10.296 54.7821818,12.456 54.7821818,15.012 C54.7821818,17.604 52.6581818,19.728 50.0661818,19.728 C47.4741818,19.728 45.3501818,17.604 45.3501818,14.976 C45.3501818,12.42 47.4741818,10.296 50.0661818,10.296 L50.0661818,10.296 Z M73.7672727,20.268 C76.1432727,20.268 77.7632727,19.764 79.3832727,18.576 C81.5792727,16.92 82.8392727,14.328 82.8392727,11.664 C82.8392727,7.92 80.4992727,4.68 76.9712727,3.492 C75.7832727,3.132 74.5952727,2.988 72.1472727,2.988 L68.7992727,2.988 C67.3592727,2.988 66.3872727,3.348 65.5592727,4.176 C64.7312727,5.04 64.4792727,5.832 64.4792727,7.56 L64.4792727,21.636 C64.4792727,24.048 64.5512727,24.408 65.1632727,25.38 C65.8832727,26.496 67.1432727,27.18 68.4752727,27.18 C70.8512727,27.18 72.4352727,25.344 72.4352727,22.608 L72.4352727,21.024 C72.4352727,20.664 72.4352727,20.556 72.3632727,20.232 C72.6872727,20.268 72.7592727,20.268 73.1192727,20.268 L73.7672727,20.268 Z M72.4352727,10.296 C72.7232727,10.296 73.0832727,10.26 73.1912727,10.26 C74.4512727,10.26 75.0992727,10.728 75.0992727,11.628 C75.0992727,12.744 74.4152727,13.068 72.3632727,12.996 C72.3632727,12.78 72.3632727,12.636 72.3992727,12.528 C72.4352727,12.312 72.4352727,12.168 72.4352727,12.096 L72.4352727,10.296 Z M92.0683636,8.208 C92.0683636,5.904 91.8883636,5.184 91.1683636,4.248 C90.4843636,3.384 89.3323636,2.808 88.1083636,2.808 C85.7323636,2.808 84.1483636,4.536 84.1483636,7.272 L84.1483636,20.808 C84.1483636,24.12 84.2923636,24.66 85.2283636,25.776 C86.0203636,26.604 87.0283636,27 88.5763636,27 L96.1363636,27 C97.5403636,27 98.3683636,26.748 99.0883636,26.064 C99.8443636,25.416 100.312364,24.3 100.312364,23.292 C100.312364,22.14 99.7363636,20.988 98.8003636,20.304 C98.0443636,19.764 97.2883636,19.584 95.9923636,19.584 L92.7883636,19.584 C92.3923636,19.584 92.3563636,19.584 91.9963636,19.656 C92.0683636,19.296 92.0683636,19.224 92.0683636,18.864 L92.0683636,8.208 Z M112.853454,10.368 C114.329454,10.368 115.157454,10.152 115.877454,9.504 C116.705454,8.856 117.173454,7.776 117.173454,6.624 C117.173454,5.004 116.165454,3.672 114.545454,3.168 C113.969454,2.988 113.789454,2.988 111.413454,2.988 L106.697454,2.988 C104.321454,2.988 104.141454,3.024 103.277454,3.384 C102.377454,3.744 101.693454,4.5 101.333454,5.328 C101.045454,6.12 101.009454,6.372 101.009454,8.388 L101.009454,21.42 C101.009454,23.112 101.009454,23.328 101.153454,23.904 C101.441454,25.2 102.125454,26.064 103.277454,26.604 C104.033454,26.928 104.537454,27 106.409454,27 L112.565454,27 C114.365454,27 115.085454,26.82 115.877454,26.136 C116.669454,25.488 117.137454,24.372 117.137454,23.292 C117.137454,22.212 116.669454,21.168 115.877454,20.52 C115.049454,19.764 114.257454,19.584 112.565454,19.584 L109.649454,19.584 C109.253454,19.584 109.217454,19.584 108.857454,19.656 C108.929454,19.296 108.929454,19.224 108.929454,18.864 L108.929454,18.504 C108.929454,18.144 108.929454,18.072 108.857454,17.748 C109.217454,17.784 109.253454,17.784 109.649454,17.784 L111.737454,17.784 C112.997454,17.784 113.573454,17.676 114.185454,17.208 C114.869454,16.668 115.265454,15.84 115.265454,14.94 C115.265454,13.212 113.969454,12.06 112.025454,12.06 L109.649454,12.06 C109.253454,12.06 109.217454,12.06 108.857454,12.132 C108.929454,11.772 108.929454,11.7 108.929454,11.34 L108.929454,11.124 C108.929454,10.728 108.929454,10.656 108.857454,10.296 C109.217454,10.368 109.253454,10.368 109.649454,10.368 L112.853454,10.368 Z M118.914545,9.072 C118.914545,9.072 118.842545,9.216 118.770545,9.468 C118.518545,10.044 118.374545,10.548 118.374545,10.872 C118.374545,11.628 119.202545,12.312 120.066545,12.312 C121.110545,12.312 121.506545,11.88 122.874545,9.216 C123.738545,7.596 124.026545,6.732 124.026545,5.904 C124.026545,4.248 122.406545,2.736 120.714545,2.736 C118.878545,2.736 117.258545,4.356 117.258545,6.156 C117.258545,7.308 117.870545,8.388 118.914545,9.072 L118.914545,9.072 Z M127.711636,17.928 C125.659636,17.928 124.111636,19.476 124.111636,21.528 C124.111636,24.948 128.035636,27.612 133.111636,27.612 C136.099636,27.612 138.259636,26.856 139.843636,25.2 C141.319636,23.76 142.147636,21.636 142.147636,19.44 C142.147636,17.208 141.211636,15.012 139.735636,13.824 C138.619636,12.888 136.639636,11.916 134.623636,11.268 C132.751636,10.692 132.211636,10.332 132.211636,9.648 C132.211636,9.144 132.679636,8.676 133.183636,8.676 C133.615636,8.676 134.011636,8.892 134.839636,9.54 C136.135636,10.584 137.035636,10.944 138.079636,10.944 C139.915636,10.944 141.211636,9.576 141.211636,7.668 C141.211636,4.716 137.827636,2.376 133.507636,2.376 C128.251636,2.376 124.651636,5.616 124.651636,10.296 C124.651636,13.608 126.379636,15.876 129.907636,17.136 L132.031636,17.892 C133.003636,18.252 133.219636,18.324 133.399636,18.468 C133.867636,18.756 134.047636,19.08 134.047636,19.512 C134.047636,20.124 133.615636,20.52 133.039636,20.52 C132.463636,20.52 132.247636,20.412 130.555636,19.08 C129.475636,18.252 128.683636,17.928 127.711636,17.928 L127.711636,17.928 Z M10.656,49.268 C13.032,49.268 14.652,48.764 16.272,47.576 C18.468,45.92 19.728,43.328 19.728,40.664 C19.728,36.92 17.388,33.68 13.86,32.492 C12.672,32.132 11.484,31.988 9.036,31.988 L5.688,31.988 C4.248,31.988 3.276,32.348 2.448,33.176 C1.62,34.04 1.368,34.832 1.368,36.56 L1.368,50.636 C1.368,53.048 1.44,53.408 2.052,54.38 C2.772,55.496 4.032,56.18 5.364,56.18 C7.74,56.18 9.324,54.344 9.324,51.608 L9.324,50.024 C9.324,49.664 9.324,49.556 9.252,49.232 C9.576,49.268 9.648,49.268 10.008,49.268 L10.656,49.268 Z M9.324,39.296 C9.612,39.296 9.972,39.26 10.08,39.26 C11.34,39.26 11.988,39.728 11.988,40.628 C11.988,41.744 11.304,42.068 9.252,41.996 C9.252,41.78 9.252,41.636 9.288,41.528 C9.324,41.312 9.324,41.168 9.324,41.096 L9.324,39.296 Z M32.7370909,31.376 C25.7530909,31.376 20.1370909,36.956 20.1370909,43.868 C20.1370909,50.96 25.7170909,56.612 32.8090909,56.612 C39.7570909,56.612 45.4090909,50.924 45.4090909,43.976 C45.4090909,37.028 39.7570909,31.376 32.7370909,31.376 L32.7370909,31.376 Z M32.7730909,39.296 C35.3650909,39.296 37.4890909,41.456 37.4890909,44.012 C37.4890909,46.604 35.3650909,48.728 32.7730909,48.728 C30.1810909,48.728 28.0570909,46.604 28.0570909,43.976 C28.0570909,41.42 30.1810909,39.296 32.7730909,39.296 L32.7730909,39.296 Z M67.2381818,41.528 C66.8421818,40.16 66.7701818,39.872 66.2301818,38.36 L65.0781818,34.904 C64.3221818,32.816 63.0621818,31.808 61.1181818,31.808 C59.2101818,31.808 57.9501818,32.78 57.3021818,34.796 L56.1141818,38.216 C55.6461818,39.728 55.5381818,40.016 55.2141818,41.348 L55.1061818,41.348 C54.6381818,40.052 54.5301818,39.692 53.9541818,38.288 L52.6221818,35.012 C51.7581818,32.888 50.3541818,31.808 48.5541818,31.808 C46.3581818,31.808 44.5581818,33.464 44.5581818,35.552 C44.5581818,36.02 44.7021818,36.632 44.9901818,37.388 L51.1101818,53.444 C51.7941818,55.244 53.0901818,56.18 54.8901818,56.18 C56.6541818,56.18 57.9861818,55.1 58.6701818,53.12 L60.2181818,48.404 C60.7221818,46.892 60.8301818,46.496 61.2261818,45.056 L61.2981818,45.056 C61.6941818,46.496 61.8381818,46.892 62.3421818,48.404 L63.9621818,53.156 C64.6101818,55.136 65.9781818,56.18 67.7781818,56.18 C69.5781818,56.18 70.8381818,55.208 71.6301818,53.084 L77.2821818,37.64 C77.6781818,36.632 77.7861818,36.2 77.7861818,35.732 C77.7861818,33.5 76.0221818,31.808 73.7901818,31.808 C72.0621818,31.808 70.5501818,32.888 69.9021818,34.544 L68.4261818,38.432 C67.8861818,39.836 67.7421818,40.16 67.3461818,41.528 L67.2381818,41.528 Z M90.2912727,39.368 C91.7672727,39.368 92.5952727,39.152 93.3152727,38.504 C94.1432727,37.856 94.6112727,36.776 94.6112727,35.624 C94.6112727,34.004 93.6032727,32.672 91.9832727,32.168 C91.4072727,31.988 91.2272727,31.988 88.8512727,31.988 L84.1352727,31.988 C81.7592727,31.988 81.5792727,32.024 80.7152727,32.384 C79.8152727,32.744 79.1312727,33.5 78.7712727,34.328 C78.4832727,35.12 78.4472727,35.372 78.4472727,37.388 L78.4472727,50.42 C78.4472727,52.112 78.4472727,52.328 78.5912727,52.904 C78.8792727,54.2 79.5632727,55.064 80.7152727,55.604 C81.4712727,55.928 81.9752727,56 83.8472727,56 L90.0032727,56 C91.8032727,56 92.5232727,55.82 93.3152727,55.136 C94.1072727,54.488 94.5752727,53.372 94.5752727,52.292 C94.5752727,51.212 94.1072727,50.168 93.3152727,49.52 C92.4872727,48.764 91.6952727,48.584 90.0032727,48.584 L87.0872727,48.584 C86.6912727,48.584 86.6552727,48.584 86.2952727,48.656 C86.3672727,48.296 86.3672727,48.224 86.3672727,47.864 L86.3672727,47.504 C86.3672727,47.144 86.3672727,47.072 86.2952727,46.748 C86.6552727,46.784 86.6912727,46.784 87.0872727,46.784 L89.1752727,46.784 C90.4352727,46.784 91.0112727,46.676 91.6232727,46.208 C92.3072727,45.668 92.7032727,44.84 92.7032727,43.94 C92.7032727,42.212 91.4072727,41.06 89.4632727,41.06 L87.0872727,41.06 C86.6912727,41.06 86.6552727,41.06 86.2952727,41.132 C86.3672727,40.772 86.3672727,40.7 86.3672727,40.34 L86.3672727,40.124 C86.3672727,39.728 86.3672727,39.656 86.2952727,39.296 C86.6552727,39.368 86.6912727,39.368 87.0872727,39.368 L90.2912727,39.368 Z M111.724364,46.748 C113.524364,44.696 114.244364,42.896 114.244364,40.628 C114.244364,36.812 111.760364,33.5 108.160364,32.42 C107.044364,32.096 106.180364,31.988 104.092364,31.988 L100.780364,31.988 C98.8723636,31.988 98.0803636,32.204 97.1803636,32.996 C96.2803636,33.86 95.8843636,34.868 95.8843636,36.56 L95.8843636,51.356 C95.8843636,54.344 97.3963636,56.18 99.9163636,56.18 C102.112364,56.18 103.804364,54.452 103.804364,52.184 L103.804364,50.564 C103.804364,49.736 103.768364,49.484 103.696364,48.692 L103.768364,48.656 C104.452364,49.952 104.596364,50.24 105.460364,51.644 L107.080364,54.344 C107.836364,55.568 108.952364,56.18 110.356364,56.18 C112.588364,56.18 114.316364,54.488 114.316364,52.292 C114.316364,51.464 114.028364,50.492 113.560364,49.736 L111.724364,46.748 Z M104.560364,41.996 C104.416364,41.996 104.092364,41.996 103.732364,42.032 C103.804364,41.708 103.804364,41.6 103.804364,41.24 L103.804364,40.052 C103.804364,39.656 103.804364,39.584 103.732364,39.26 C104.272364,39.296 104.416364,39.296 104.776364,39.296 C105.892364,39.296 106.504364,39.8 106.504364,40.7 C106.504364,41.564 105.928364,41.996 104.704364,41.996 L104.560364,41.996 Z M125.322545,46.928 C123.270545,46.928 121.722545,48.476 121.722545,50.528 C121.722545,53.948 125.646545,56.612 130.722545,56.612 C133.710545,56.612 135.870545,55.856 137.454545,54.2 C138.930545,52.76 139.758545,50.636 139.758545,48.44 C139.758545,46.208 138.822545,44.012 137.346545,42.824 C136.230545,41.888 134.250545,40.916 132.234545,40.268 C130.362545,39.692 129.822545,39.332 129.822545,38.648 C129.822545,38.144 130.290545,37.676 130.794545,37.676 C131.226545,37.676 131.622545,37.892 132.450545,38.54 C133.746545,39.584 134.646545,39.944 135.690545,39.944 C137.526545,39.944 138.822545,38.576 138.822545,36.668 C138.822545,33.716 135.438545,31.376 131.118545,31.376 C125.862545,31.376 122.262545,34.616 122.262545,39.296 C122.262545,42.608 123.990545,44.876 127.518545,46.136 L129.642545,46.892 C130.614545,47.252 130.830545,47.324 131.010545,47.468 C131.478545,47.756 131.658545,48.08 131.658545,48.512 C131.658545,49.124 131.226545,49.52 130.650545,49.52 C130.074545,49.52 129.858545,49.412 128.166545,48.08 C127.086545,47.252 126.294545,46.928 125.322545,46.928 L125.322545,46.928 Z M155.143636,39.368 C156.547636,39.368 157.483636,39.116 158.095636,38.612 C158.959636,37.928 159.499636,36.74 159.499636,35.66 C159.499636,33.752 158.167636,32.276 156.151636,32.024 C155.719636,31.988 155.719636,31.988 153.595636,31.988 L145.603636,31.988 C142.435636,31.988 142.111636,32.024 141.319636,32.384 C140.131636,32.924 139.267636,34.328 139.267636,35.696 C139.267636,36.596 139.627636,37.496 140.275636,38.216 C141.031636,39.044 141.895636,39.368 143.335636,39.368 L144.703636,39.368 C145.099636,39.368 145.171636,39.368 145.495636,39.296 C145.459636,39.656 145.459636,39.728 145.459636,40.124 L145.459636,51.428 C145.459636,53.012 145.603636,53.696 146.179636,54.524 C146.899636,55.604 148.123636,56.18 149.419636,56.18 C150.787636,56.18 151.975636,55.532 152.695636,54.38 C153.235636,53.552 153.379636,52.796 153.379636,51.32 L153.379636,40.124 C153.379636,39.728 153.379636,39.656 153.307636,39.296 C153.667636,39.368 153.739636,39.368 154.099636,39.368 L155.143636,39.368 Z M170.312727,52.868 C171.464727,55.316 172.508727,56.18 174.344727,56.18 C176.540727,56.18 178.340727,54.452 178.340727,52.256 C178.340727,51.608 178.196727,50.924 177.908727,50.348 L170.312727,34.22 C169.628727,32.672 168.260727,31.808 166.604727,31.808 C165.020727,31.808 163.652727,32.672 162.968727,34.148 L155.444727,50.132 C155.120727,50.816 154.976727,51.536 154.976727,52.256 C154.976727,54.452 156.668727,56.18 158.900727,56.18 C160.808727,56.18 161.960727,55.244 162.968727,52.868 L170.312727,52.868 Z M166.640727,44.12 C166.928727,45.056 167.360727,45.956 167.972727,47.18 C167.396727,47.144 167.252727,47.144 166.604727,47.144 C165.956727,47.144 165.812727,47.144 165.236727,47.18 C165.884727,45.956 166.280727,45.056 166.604727,44.12 L166.640727,44.12 Z M189.693818,39.368 C191.097818,39.368 192.033818,39.116 192.645818,38.612 C193.509818,37.928 194.049818,36.74 194.049818,35.66 C194.049818,33.752 192.717818,32.276 190.701818,32.024 C190.269818,31.988 190.269818,31.988 188.145818,31.988 L180.153818,31.988 C176.985818,31.988 176.661818,32.024 175.869818,32.384 C174.681818,32.924 173.817818,34.328 173.817818,35.696 C173.817818,36.596 174.177818,37.496 174.825818,38.216 C175.581818,39.044 176.445818,39.368 177.885818,39.368 L179.253818,39.368 C179.649818,39.368 179.721818,39.368 180.045818,39.296 C180.009818,39.656 180.009818,39.728 180.009818,40.124 L180.009818,51.428 C180.009818,53.012 180.153818,53.696 180.729818,54.524 C181.449818,55.604 182.673818,56.18 183.969818,56.18 C185.337818,56.18 186.525818,55.532 187.245818,54.38 C187.785818,53.552 187.929818,52.796 187.929818,51.32 L187.929818,40.124 C187.929818,39.728 187.929818,39.656 187.857818,39.296 C188.217818,39.368 188.289818,39.368 188.649818,39.368 L189.693818,39.368 Z M202.774909,36.74 C202.774909,34.76 202.558909,33.968 201.766909,33.068 C201.046909,32.24 199.966909,31.808 198.814909,31.808 C197.662909,31.808 196.618909,32.24 195.862909,33.068 C195.070909,34.004 194.854909,34.724 194.854909,36.704 L194.854909,51.608 C194.854909,53.264 195.142909,54.128 195.862909,54.92 C196.618909,55.676 197.770909,56.18 198.850909,56.18 C199.894909,56.18 201.046909,55.676 201.766909,54.848 C202.486909,54.02 202.774909,53.12 202.774909,51.608 L202.774909,36.74 Z M217.116,31.376 C210.132,31.376 204.516,36.956 204.516,43.868 C204.516,50.96 210.096,56.612 217.188,56.612 C224.136,56.612 229.788,50.924 229.788,43.976 C229.788,37.028 224.136,31.376 217.116,31.376 L217.116,31.376 Z M217.152,39.296 C219.744,39.296 221.868,41.456 221.868,44.012 C221.868,46.604 219.744,48.728 217.152,48.728 C214.56,48.728 212.436,46.604 212.436,43.976 C212.436,41.42 214.56,39.296 217.152,39.296 L217.152,39.296 Z M239.377091,46.316 C240.205091,47.54 240.385091,47.792 241.393091,49.088 L245.677091,54.56 C246.505091,55.64 247.549091,56.18 248.809091,56.18 C250.033091,56.18 251.185091,55.64 251.869091,54.704 C252.589091,53.804 252.769091,53.012 252.769091,51.14 L252.769091,36.416 C252.769091,34.904 252.517091,34.076 251.833091,33.248 C251.077091,32.312 249.997091,31.808 248.809091,31.808 C247.513091,31.808 246.289091,32.456 245.569091,33.5 C244.993091,34.328 244.849091,35.084 244.849091,36.668 L244.849091,38.864 C244.849091,40.016 244.849091,40.268 244.957091,41.276 L244.885091,41.312 C244.057091,40.124 243.841091,39.872 242.797091,38.612 L238.549091,33.392 C237.613091,32.276 236.749091,31.808 235.597091,31.808 C233.077091,31.808 231.421091,33.5 231.421091,36.056 L231.421091,51.248 C231.421091,53.048 231.637091,53.732 232.285091,54.632 C233.041091,55.604 234.193091,56.18 235.453091,56.18 C236.641091,56.18 237.757091,55.64 238.513091,54.74 C239.161091,53.912 239.413091,53.12 239.413091,51.572 L239.413091,49.016 C239.413091,47.864 239.413091,47.504 239.269091,46.352 L239.377091,46.316 Z" id="PEOPLE’S-POWER-STATI"></path>
        </g>
    </g>
</svg>