<?xml version="1.0" encoding="UTF-8" standalone="no"?>
<svg width="90px" height="90px" viewBox="0 0 103 103" version="1.1" xmlns="http://www.w3.org/2000/svg" xmlns:xlink="http://www.w3.org/1999/xlink">
    <!-- Generator: Sketch 39.1 (31720) - http://www.bohemiancoding.com/sketch -->
    <title>Group</title>
    <desc>Created with Sketch.</desc>
    <defs>
        <polygon id="path-1" points="102.999485 103 0 103 0 0.00012875 102.999485 0.00012875"></polygon>
    </defs>
    <g id="Symbols" stroke="none" stroke-width="1" fill="none" fill-rule="evenodd">
        <g id="LCH-LOGO">
            <g id="Group">
                <g id="Group-3">
                    <mask id="mask-2" fill="white">
                        <use xlink:href="#path-1"></use>
                    </mask>
                    <g id="Clip-2"></g>
                    <path d="M85.2847725,58.9483162 C85.2847725,80.1560162 68.092785,97.3454287 46.8863725,97.3454287 C25.6786725,97.3454287 8.486685,80.1560162 8.486685,58.9483162 C8.486685,37.7419037 25.6786725,20.5512037 46.8863725,20.5512037 C68.092785,20.5512037 85.2847725,37.7419037 85.2847725,58.9483162 M102.999485,51.4975537 C102.999485,23.0553912 79.942935,0.00012875 51.499485,0.00012875 C23.0573225,0.00012875 -0.000515,23.0553912 -0.000515,51.4975537 C-0.000515,79.9384287 23.0573225,103.000129 51.499485,103.000129 C79.942935,103.000129 102.999485,79.9384287 102.999485,51.4975537" id="Fill-1" fill="#24CE7B" mask="url(#mask-2)"></path>
                </g>
                <path d="M56.858854,80.1541389 C56.858854,79.2851026 57.2184027,78.657537 58.1070015,78.657537 C58.9956004,78.657537 59.3320352,79.2851026 59.3320352,80.1541389 L59.3320352,83.4611255 C59.3320352,84.3301618 58.9956004,84.9577273 58.1070015,84.9577273 C57.2184027,84.9577273 56.858854,84.3301618 56.858854,83.4611255 L56.858854,80.1541389 Z M53.5214719,72.5252141 L53.5214719,86.6725567 C53.5214719,87.3724344 53.9054185,87.7585293 54.6026861,87.7585293 L54.6501979,87.7585293 C55.3949773,87.7585293 55.9702551,87.5170586 56.4980212,86.9863395 L56.6431248,86.8417154 C57.0026735,87.3246568 57.7474528,88 59.2113296,88 C61.2761662,88 62.6681332,86.3820171 62.6681332,84.4747859 L62.6681332,79.1404785 C62.6681332,77.2332472 61.4443836,75.6152644 59.379547,75.6152644 C58.1313995,75.6152644 57.2428006,76.2918989 56.8832519,76.7748403 L56.8832519,72.5252141 C56.8832519,71.4392415 56.30669,70.8594536 55.2267599,70.8594536 L55.177964,70.8594536 C54.0980338,70.8594536 53.5214719,71.4392415 53.5214719,72.5252141 L53.5214719,72.5252141 Z M42.1430406,77.4992524 L42.1430406,84.4993204 C42.1430406,86.4065516 43.2229707,88 45.2878073,88 C46.2714298,88 47.328246,87.5648362 47.9523198,86.7203344 L47.9767178,86.7448688 C48.4325741,87.4447465 49.0322499,87.7585293 49.873337,87.7585293 L49.9208488,87.7585293 C50.7131399,87.7585293 51.1458825,87.3246568 51.1458825,86.5279326 L51.1458825,77.4992524 C51.1458825,76.436523 50.5693205,75.8567351 49.5125042,75.8567351 L49.4649924,75.8567351 C48.3850623,75.8567351 47.8085003,76.436523 47.8085003,77.4992524 L47.8085003,83.4133478 C47.8085003,84.2823841 47.5208614,84.8376376 46.6322625,84.8376376 C45.7436637,84.8376376 45.4791386,84.2823841 45.4791386,83.4133478 L45.4791386,77.4992524 C45.4791386,76.436523 44.9038607,75.8567351 43.8470445,75.8567351 L43.7995327,75.8567351 C42.7196026,75.8567351 42.1430406,76.436523 42.1430406,77.4992524 L42.1430406,77.4992524 Z M39.5748358,67.8288025 C40.630368,67.8288025 41.2069299,67.2490145 41.2069299,66.163042 L41.2069299,60.2721898 C41.2069299,59.6200897 41.5433648,59.3553758 41.9273114,59.3553758 C42.3831677,59.3553758 42.5269872,59.6446242 43.0072415,59.6446242 C43.5350076,59.6446242 43.7995327,59.3063069 43.7995327,58.6787413 L43.7995327,56.9406688 C43.7995327,56.2653255 43.3667902,55.9270083 42.7427164,55.9270083 C41.9748232,55.9270083 41.182532,56.4577273 40.630368,57.278986 L40.5109464,56.9406688 C40.2220234,56.2653255 39.7417691,55.9270083 39.0226718,55.9270083 L38.9738759,55.9270083 C38.2534944,55.9270083 37.8695478,56.3131032 37.8695478,57.0129808 L37.8695478,66.163042 C37.8695478,67.2490145 38.4461098,67.8288025 39.5260399,67.8288025 L39.5748358,67.8288025 Z M24.9309321,64.6173712 L24.9309321,63.8929591 C24.9309321,63.4590866 24.690805,63.2176159 24.2580625,63.2176159 L22.2176238,63.2176159 C21.881189,63.2176159 21.7129715,63.3867745 21.7129715,63.7005573 L21.7129715,64.2558108 C21.7129715,64.5928368 21.5460382,65.2449368 20.5367337,65.2449368 C19.5287134,65.2449368 19.3373821,64.5928368 19.3373821,63.8697159 L19.3373821,59.8860949 C19.3373821,59.1616828 19.5287134,58.5095827 20.5367337,58.5095827 C21.5460382,58.5095827 21.7129715,59.1616828 21.7129715,59.5 L21.7129715,60.030719 C21.7129715,60.3690363 21.881189,60.5381949 22.2176238,60.5381949 L24.2580625,60.5381949 C24.690805,60.5381949 24.9309321,60.2967242 24.9309321,59.8615604 L24.9309321,59.1371483 C24.9309321,57.1098274 23.4413734,55.6855376 20.5136199,55.6855376 C17.6076962,55.6855376 16,57.4713878 16,59.7892483 L16,63.9652712 C16,66.2831317 17.6076962,68.0702732 20.5136199,68.0702732 C23.4413734,68.0702732 24.954046,66.6459834 24.9309321,64.6173712 L24.9309321,64.6173712 Z M31.9883589,64.3281229 C31.9883589,65.052535 31.5325025,65.4386299 30.8596329,65.4386299 C30.1392514,65.4386299 29.8516125,64.8588419 29.8516125,64.3526573 C29.8516125,63.7005573 30.1880473,63.2421503 30.8840308,62.9270763 L31.9883589,62.4454261 L31.9883589,64.3281229 Z M31.1472718,55.6855376 C28.2670301,55.6855376 26.8031534,57.3267636 26.8031534,59.0648362 L26.8031534,59.6200897 C26.8031534,59.958407 26.9944847,60.1521 27.3309195,60.1521 L29.5639736,60.1521 C29.7553048,60.1521 29.8760104,60.030719 29.8760104,59.8383172 L29.8760104,59.4754655 C29.8760104,58.920212 30.2355591,58.5095827 30.9559406,58.5095827 C31.5325025,58.5095827 31.9883589,58.7510534 31.9883589,59.4754655 L31.9883589,60.0061846 L29.2750505,61.0211363 C27.2590098,61.7687916 26.5142304,62.9516107 26.5142304,64.4482126 L26.5142304,64.7142178 C26.5142304,66.2585973 27.5710466,68.0702732 29.971034,68.0702732 C31.124158,68.0702732 31.9883589,67.7074215 32.516125,67.1276335 C32.9244695,67.6351094 33.5729412,67.8288025 34.3164365,67.8288025 L35.1087277,67.8288025 C35.588982,67.8288025 35.8535071,67.5627973 35.8535071,67.0798559 L35.8535071,65.6077885 C35.8535071,65.2940057 35.6852897,65.1248471 35.3732528,65.1248471 L35.3244569,65.1248471 L35.3244569,59.3553758 C35.3244569,57.278986 34.0043996,55.6855376 31.1472718,55.6855376 L31.1472718,55.6855376 Z M36.4287849,46.8363463 L36.4287849,46.1597118 C36.4287849,45.31521 35.9729286,45.2428979 35.5414702,45.2428979 L35.4695605,45.2428979 C35.301343,45.2428979 35.2525472,45.1705858 35.2525472,45.0014272 L35.2525472,32.6657605 C35.2525472,31.5784967 34.7003831,31 33.620453,31 L33.5729412,31 C32.491727,31 31.9164491,31.5784967 31.9164491,32.6657605 L31.9164491,45.7258393 C31.9164491,46.9319016 32.5405229,47.8977844 34.2201288,47.8977844 L35.301343,47.8977844 C35.9729286,47.8977844 36.4287849,47.6808482 36.4287849,46.8363463 L36.4287849,46.8363463 Z M36.5738885,75.6152644 C35.325741,75.6152644 34.4371421,76.2918989 34.0763094,76.7748403 L34.0763094,72.5252141 C34.0763094,71.4392415 33.5010315,70.8594536 32.4198173,70.8594536 L32.3723055,70.8594536 C31.2923754,70.8594536 30.7158134,71.4392415 30.7158134,72.5252141 L30.7158134,86.0927688 C30.7158134,87.1787413 31.2923754,87.7585293 32.3723055,87.7585293 L32.4198173,87.7585293 C33.4766335,87.7585293 34.0531955,87.1787413 34.0531955,86.0927688 L34.0531955,80.1541389 C34.0531955,79.2851026 34.4127442,78.657537 35.301343,78.657537 C36.1899419,78.657537 36.5250926,79.2851026 36.5250926,80.1541389 L36.5250926,86.0927688 C36.5250926,87.1787413 37.1016546,87.7585293 38.1815847,87.7585293 L38.2303806,87.7585293 C39.2859128,87.7585293 39.8624747,87.1787413 39.8624747,86.0927688 L39.8624747,79.1404785 C39.8624747,77.2332472 38.6387252,75.6152644 36.5738885,75.6152644 L36.5738885,75.6152644 Z M43.5350076,43.8418513 C43.5350076,44.5662634 43.3423922,45.31521 42.3343718,45.31521 C41.3263515,45.31521 41.1337361,44.5662634 41.1337361,43.8418513 L41.1337361,40.0519233 C41.1337361,39.3275112 41.3263515,38.5798559 42.3343718,38.5798559 C43.3423922,38.5798559 43.5350076,39.3275112 43.5350076,40.0519233 L43.5350076,43.8418513 Z M46.8723897,44.0355444 L46.8723897,39.8595215 C46.8723897,37.541661 45.2158976,35.7558108 42.3343718,35.7558108 C39.4541302,35.7558108 37.7976381,37.541661 37.7976381,39.8595215 L37.7976381,44.0355444 C37.7976381,46.3534049 39.4541302,48.1392551 42.3343718,48.1392551 C45.2158976,48.1392551 46.8723897,46.3534049 46.8723897,44.0355444 L46.8723897,44.0355444 Z M48.9128284,60.2244121 C48.9128284,59.3553758 49.2723771,58.726519 50.1609759,58.726519 C51.0495748,58.726519 51.3860096,59.3553758 51.3860096,60.2244121 L51.3860096,63.5313987 C51.3860096,64.400435 51.0495748,65.0280005 50.1609759,65.0280005 C49.2723771,65.0280005 48.9128284,64.400435 48.9128284,63.5313987 L48.9128284,60.2244121 Z M47.2807343,50.9297268 L47.2319384,50.9297268 C46.1520083,50.9297268 45.5754463,51.5095147 45.5754463,52.5954873 L45.5754463,66.7415387 C45.5754463,67.4427076 45.9593929,67.8288025 46.6566605,67.8288025 L46.7041723,67.8288025 C47.4476676,67.8288025 48.0242295,67.5873318 48.5519956,67.0553215 L48.6970992,66.9106973 C49.0566479,67.3936387 49.8014272,68.0702732 51.265304,68.0702732 C53.3301406,68.0702732 54.7221076,66.4522903 54.7221076,64.5450591 L54.7221076,59.2094604 C54.7221076,57.3035205 53.498358,55.6855376 51.4335214,55.6855376 C50.1853739,55.6855376 49.296775,56.3608808 48.9372263,56.8438222 L48.9372263,52.5954873 C48.9372263,51.5095147 48.3606644,50.9297268 47.2807343,50.9297268 L47.2807343,50.9297268 Z M61.7089087,37.541661 C61.90024,36.5757782 61.4199857,35.9959902 60.4594771,35.9959902 L60.1718382,35.9959902 C59.1394198,35.9959902 58.7554732,36.5034661 58.5872558,37.541661 L57.7949646,42.1760908 L56.7394325,37.2278782 C56.5712151,36.4066195 56.0665628,35.9959902 55.2267599,35.9959902 L55.177964,35.9959902 C54.3137631,35.9959902 53.8103949,36.4066195 53.6177796,37.2278782 L52.4659397,42.1760908 L51.7930701,37.6617507 C51.6248526,36.552535 51.1933942,35.9959902 50.0890662,35.9959902 L49.6807216,35.9959902 C48.6483033,35.9959902 48.1205372,36.6248471 48.3362664,37.6617507 L50.136578,46.2565584 C50.3535913,47.3425309 51.0251768,47.8977844 52.1539028,47.8977844 L52.2014146,47.8977844 C53.3057427,47.8977844 53.9786123,47.3425309 54.1943415,46.2565584 L55.1060542,41.7899959 L56.0665628,46.3766481 C56.282292,47.3915998 56.8832519,47.8977844 57.9387841,47.8977844 L57.98758,47.8977844 C59.0199983,47.8977844 59.6196741,47.3915998 59.8354033,46.3766481 L61.7089087,37.541661 Z M62.4048922,63.7728694 C62.4048922,64.4972815 62.2122769,65.2449368 61.2042565,65.2449368 C60.1962361,65.2449368 60.0036207,64.4972815 60.0036207,63.7728694 L60.0036207,59.9829414 C60.0036207,59.2585293 60.1962361,58.5095827 61.2042565,58.5095827 C62.2122769,58.5095827 62.4048922,59.2585293 62.4048922,59.9829414 L62.4048922,63.7728694 Z M65.7409902,63.9652712 L65.7409902,59.7892483 C65.7409902,57.4713878 64.0844981,55.6855376 61.2042565,55.6855376 C58.3227307,55.6855376 56.6662386,57.4713878 56.6662386,59.7892483 L56.6662386,63.9652712 C56.6662386,66.2831317 58.3227307,68.0702732 61.2042565,68.0702732 C64.0844981,68.0702732 65.7409902,66.2831317 65.7409902,63.9652712 L65.7409902,63.9652712 Z M77,66.163042 L77,59.2094604 C77,57.3035205 75.7762504,55.6855376 73.7114138,55.6855376 C72.3194468,55.6855376 71.3833361,56.3131032 70.854286,57.0375153 L70.854286,57.0129808 C70.5191352,56.2653255 69.9669712,55.9270083 69.1502821,55.9270083 L69.0783723,55.9270083 C68.2860812,55.9270083 67.8533387,56.3608808 67.8533387,57.157605 L67.8533387,66.163042 C67.8533387,67.2490145 68.4299006,67.8288025 69.5098308,67.8288025 L69.5586266,67.8288025 C70.6141588,67.8288025 71.1907208,67.2490145 71.1907208,66.163042 L71.1907208,60.2244121 C71.1907208,59.3553758 71.5515536,58.726519 72.4388683,58.726519 C73.3274672,58.726519 73.663902,59.3553758 73.663902,60.2244121 L73.663902,66.163042 C73.663902,67.2490145 74.2391799,67.8288025 75.3203941,67.8288025 L75.3679059,67.8288025 C76.4247221,67.8288025 77,67.2490145 77,66.163042 L77,66.163042 Z" id="Fill-4" fill="#00748D"></path>
            </g>
        </g>
    </g>
</svg>
