<?xml version="1.0" encoding="UTF-8" standalone="no"?>
<svg width="380px" height="25px" viewBox="0 0 380 25" version="1.1" xmlns="http://www.w3.org/2000/svg" xmlns:xlink="http://www.w3.org/1999/xlink">
    <!-- Generator: Sketch 39.1 (31720) - http://www.bohemiancoding.com/sketch -->
    <title>PEOPLE’S POWER STATI</title>
    <desc>Created with Sketch.</desc>
    <defs></defs>
    <g id="Welcome" stroke="none" stroke-width="1" fill="none" fill-rule="evenodd">
        <g id="Desktop-HD-Copy-6" transform="translate(-141.000000, -43.000000)" fill="#24CE7B">
            <path d="M150.064,60.642 C152.308,60.642 153.838,60.166 155.368,59.044 C157.442,57.48 158.632,55.032 158.632,52.516 C158.632,48.98 156.422,45.92 153.09,44.798 C151.968,44.458 150.846,44.322 148.534,44.322 L145.372,44.322 C144.012,44.322 143.094,44.662 142.312,45.444 C141.53,46.26 141.292,47.008 141.292,48.64 L141.292,61.934 C141.292,64.212 141.36,64.552 141.938,65.47 C142.618,66.524 143.808,67.17 145.066,67.17 C147.31,67.17 148.806,65.436 148.806,62.852 L148.806,61.356 C148.806,61.016 148.806,60.914 148.738,60.608 C149.044,60.642 149.112,60.642 149.452,60.642 L150.064,60.642 Z M148.806,51.224 C149.078,51.224 149.418,51.19 149.52,51.19 C150.71,51.19 151.322,51.632 151.322,52.482 C151.322,53.536 150.676,53.842 148.738,53.774 C148.738,53.57 148.738,53.434 148.772,53.332 C148.806,53.128 148.806,52.992 148.806,52.924 L148.806,51.224 Z M171.055222,51.292 C172.449222,51.292 173.231222,51.088 173.911222,50.476 C174.693222,49.864 175.135222,48.844 175.135222,47.756 C175.135222,46.226 174.183222,44.968 172.653222,44.492 C172.109222,44.322 171.939222,44.322 169.695222,44.322 L165.241222,44.322 C162.997222,44.322 162.827222,44.356 162.011222,44.696 C161.161222,45.036 160.515222,45.75 160.175222,46.532 C159.903222,47.28 159.869222,47.518 159.869222,49.422 L159.869222,61.73 C159.869222,63.328 159.869222,63.532 160.005222,64.076 C160.277222,65.3 160.923222,66.116 162.011222,66.626 C162.725222,66.932 163.201222,67 164.969222,67 L170.783222,67 C172.483222,67 173.163222,66.83 173.911222,66.184 C174.659222,65.572 175.101222,64.518 175.101222,63.498 C175.101222,62.478 174.659222,61.492 173.911222,60.88 C173.129222,60.166 172.381222,59.996 170.783222,59.996 L168.029222,59.996 C167.655222,59.996 167.621222,59.996 167.281222,60.064 C167.349222,59.724 167.349222,59.656 167.349222,59.316 L167.349222,58.976 C167.349222,58.636 167.349222,58.568 167.281222,58.262 C167.621222,58.296 167.655222,58.296 168.029222,58.296 L170.001222,58.296 C171.191222,58.296 171.735222,58.194 172.313222,57.752 C172.959222,57.242 173.333222,56.46 173.333222,55.61 C173.333222,53.978 172.109222,52.89 170.273222,52.89 L168.029222,52.89 C167.655222,52.89 167.621222,52.89 167.281222,52.958 C167.349222,52.618 167.349222,52.55 167.349222,52.21 L167.349222,52.006 C167.349222,51.632 167.349222,51.564 167.281222,51.224 C167.621222,51.292 167.655222,51.292 168.029222,51.292 L171.055222,51.292 Z M187.252444,43.744 C180.656444,43.744 175.352444,49.014 175.352444,55.542 C175.352444,62.24 180.622444,67.578 187.320444,67.578 C193.882444,67.578 199.220444,62.206 199.220444,55.644 C199.220444,49.082 193.882444,43.744 187.252444,43.744 L187.252444,43.744 Z M187.286444,51.224 C189.734444,51.224 191.740444,53.264 191.740444,55.678 C191.740444,58.126 189.734444,60.132 187.286444,60.132 C184.838444,60.132 182.832444,58.126 182.832444,55.644 C182.832444,53.23 184.838444,51.224 187.286444,51.224 L187.286444,51.224 Z M209.671667,60.642 C211.915667,60.642 213.445667,60.166 214.975667,59.044 C217.049667,57.48 218.239667,55.032 218.239667,52.516 C218.239667,48.98 216.029667,45.92 212.697667,44.798 C211.575667,44.458 210.453667,44.322 208.141667,44.322 L204.979667,44.322 C203.619667,44.322 202.701667,44.662 201.919667,45.444 C201.137667,46.26 200.899667,47.008 200.899667,48.64 L200.899667,61.934 C200.899667,64.212 200.967667,64.552 201.545667,65.47 C202.225667,66.524 203.415667,67.17 204.673667,67.17 C206.917667,67.17 208.413667,65.436 208.413667,62.852 L208.413667,61.356 C208.413667,61.016 208.413667,60.914 208.345667,60.608 C208.651667,60.642 208.719667,60.642 209.059667,60.642 L209.671667,60.642 Z M208.413667,51.224 C208.685667,51.224 209.025667,51.19 209.127667,51.19 C210.317667,51.19 210.929667,51.632 210.929667,52.482 C210.929667,53.536 210.283667,53.842 208.345667,53.774 C208.345667,53.57 208.345667,53.434 208.379667,53.332 C208.413667,53.128 208.413667,52.992 208.413667,52.924 L208.413667,51.224 Z M226.956889,49.252 C226.956889,47.076 226.786889,46.396 226.106889,45.512 C225.460889,44.696 224.372889,44.152 223.216889,44.152 C220.972889,44.152 219.476889,45.784 219.476889,48.368 L219.476889,61.152 C219.476889,64.28 219.612889,64.79 220.496889,65.844 C221.244889,66.626 222.196889,67 223.658889,67 L230.798889,67 C232.124889,67 232.906889,66.762 233.586889,66.116 C234.300889,65.504 234.742889,64.45 234.742889,63.498 C234.742889,62.41 234.198889,61.322 233.314889,60.676 C232.600889,60.166 231.886889,59.996 230.662889,59.996 L227.636889,59.996 C227.262889,59.996 227.228889,59.996 226.888889,60.064 C226.956889,59.724 226.956889,59.656 226.956889,59.316 L226.956889,49.252 Z M246.588111,51.292 C247.982111,51.292 248.764111,51.088 249.444111,50.476 C250.226111,49.864 250.668111,48.844 250.668111,47.756 C250.668111,46.226 249.716111,44.968 248.186111,44.492 C247.642111,44.322 247.472111,44.322 245.228111,44.322 L240.774111,44.322 C238.530111,44.322 238.360111,44.356 237.544111,44.696 C236.694111,45.036 236.048111,45.75 235.708111,46.532 C235.436111,47.28 235.402111,47.518 235.402111,49.422 L235.402111,61.73 C235.402111,63.328 235.402111,63.532 235.538111,64.076 C235.810111,65.3 236.456111,66.116 237.544111,66.626 C238.258111,66.932 238.734111,67 240.502111,67 L246.316111,67 C248.016111,67 248.696111,66.83 249.444111,66.184 C250.192111,65.572 250.634111,64.518 250.634111,63.498 C250.634111,62.478 250.192111,61.492 249.444111,60.88 C248.662111,60.166 247.914111,59.996 246.316111,59.996 L243.562111,59.996 C243.188111,59.996 243.154111,59.996 242.814111,60.064 C242.882111,59.724 242.882111,59.656 242.882111,59.316 L242.882111,58.976 C242.882111,58.636 242.882111,58.568 242.814111,58.262 C243.154111,58.296 243.188111,58.296 243.562111,58.296 L245.534111,58.296 C246.724111,58.296 247.268111,58.194 247.846111,57.752 C248.492111,57.242 248.866111,56.46 248.866111,55.61 C248.866111,53.978 247.642111,52.89 245.806111,52.89 L243.562111,52.89 C243.188111,52.89 243.154111,52.89 242.814111,52.958 C242.882111,52.618 242.882111,52.55 242.882111,52.21 L242.882111,52.006 C242.882111,51.632 242.882111,51.564 242.814111,51.224 C243.154111,51.292 243.188111,51.292 243.562111,51.292 L246.588111,51.292 Z M252.313333,50.068 C252.313333,50.068 252.245333,50.204 252.177333,50.442 C251.939333,50.986 251.803333,51.462 251.803333,51.768 C251.803333,52.482 252.585333,53.128 253.401333,53.128 C254.387333,53.128 254.761333,52.72 256.053333,50.204 C256.869333,48.674 257.141333,47.858 257.141333,47.076 C257.141333,45.512 255.611333,44.084 254.013333,44.084 C252.279333,44.084 250.749333,45.614 250.749333,47.314 C250.749333,48.402 251.327333,49.422 252.313333,50.068 L252.313333,50.068 Z M260.622556,58.432 C258.684556,58.432 257.222556,59.894 257.222556,61.832 C257.222556,65.062 260.928556,67.578 265.722556,67.578 C268.544556,67.578 270.584556,66.864 272.080556,65.3 C273.474556,63.94 274.256556,61.934 274.256556,59.86 C274.256556,57.752 273.372556,55.678 271.978556,54.556 C270.924556,53.672 269.054556,52.754 267.150556,52.142 C265.382556,51.598 264.872556,51.258 264.872556,50.612 C264.872556,50.136 265.314556,49.694 265.790556,49.694 C266.198556,49.694 266.572556,49.898 267.354556,50.51 C268.578556,51.496 269.428556,51.836 270.414556,51.836 C272.148556,51.836 273.372556,50.544 273.372556,48.742 C273.372556,45.954 270.176556,43.744 266.096556,43.744 C261.132556,43.744 257.732556,46.804 257.732556,51.224 C257.732556,54.352 259.364556,56.494 262.696556,57.684 L264.702556,58.398 C265.620556,58.738 265.824556,58.806 265.994556,58.942 C266.436556,59.214 266.606556,59.52 266.606556,59.928 C266.606556,60.506 266.198556,60.88 265.654556,60.88 C265.110556,60.88 264.906556,60.778 263.308556,59.52 C262.288556,58.738 261.540556,58.432 260.622556,58.432 L260.622556,58.432 Z M291.351,60.642 C293.595,60.642 295.125,60.166 296.655,59.044 C298.729,57.48 299.919,55.032 299.919,52.516 C299.919,48.98 297.709,45.92 294.377,44.798 C293.255,44.458 292.133,44.322 289.821,44.322 L286.659,44.322 C285.299,44.322 284.381,44.662 283.599,45.444 C282.817,46.26 282.579,47.008 282.579,48.64 L282.579,61.934 C282.579,64.212 282.647,64.552 283.225,65.47 C283.905,66.524 285.095,67.17 286.353,67.17 C288.597,67.17 290.093,65.436 290.093,62.852 L290.093,61.356 C290.093,61.016 290.093,60.914 290.025,60.608 C290.331,60.642 290.399,60.642 290.739,60.642 L291.351,60.642 Z M290.093,51.224 C290.365,51.224 290.705,51.19 290.807,51.19 C291.997,51.19 292.609,51.632 292.609,52.482 C292.609,53.536 291.963,53.842 290.025,53.774 C290.025,53.57 290.025,53.434 290.059,53.332 C290.093,53.128 290.093,52.992 290.093,52.924 L290.093,51.224 Z M312.206222,43.744 C305.610222,43.744 300.306222,49.014 300.306222,55.542 C300.306222,62.24 305.576222,67.578 312.274222,67.578 C318.836222,67.578 324.174222,62.206 324.174222,55.644 C324.174222,49.082 318.836222,43.744 312.206222,43.744 L312.206222,43.744 Z M312.240222,51.224 C314.688222,51.224 316.694222,53.264 316.694222,55.678 C316.694222,58.126 314.688222,60.132 312.240222,60.132 C309.792222,60.132 307.786222,58.126 307.786222,55.644 C307.786222,53.23 309.792222,51.224 312.240222,51.224 L312.240222,51.224 Z M344.791444,53.332 C344.417444,52.04 344.349444,51.768 343.839444,50.34 L342.751444,47.076 C342.037444,45.104 340.847444,44.152 339.011444,44.152 C337.209444,44.152 336.019444,45.07 335.407444,46.974 L334.285444,50.204 C333.843444,51.632 333.741444,51.904 333.435444,53.162 L333.333444,53.162 C332.891444,51.938 332.789444,51.598 332.245444,50.272 L330.987444,47.178 C330.171444,45.172 328.845444,44.152 327.145444,44.152 C325.071444,44.152 323.371444,45.716 323.371444,47.688 C323.371444,48.13 323.507444,48.708 323.779444,49.422 L329.559444,64.586 C330.205444,66.286 331.429444,67.17 333.129444,67.17 C334.795444,67.17 336.053444,66.15 336.699444,64.28 L338.161444,59.826 C338.637444,58.398 338.739444,58.024 339.113444,56.664 L339.181444,56.664 C339.555444,58.024 339.691444,58.398 340.167444,59.826 L341.697444,64.314 C342.309444,66.184 343.601444,67.17 345.301444,67.17 C347.001444,67.17 348.191444,66.252 348.939444,64.246 L354.277444,49.66 C354.651444,48.708 354.753444,48.3 354.753444,47.858 C354.753444,45.75 353.087444,44.152 350.979444,44.152 C349.347444,44.152 347.919444,45.172 347.307444,46.736 L345.913444,50.408 C345.403444,51.734 345.267444,52.04 344.893444,53.332 L344.791444,53.332 Z M366.564667,51.292 C367.958667,51.292 368.740667,51.088 369.420667,50.476 C370.202667,49.864 370.644667,48.844 370.644667,47.756 C370.644667,46.226 369.692667,44.968 368.162667,44.492 C367.618667,44.322 367.448667,44.322 365.204667,44.322 L360.750667,44.322 C358.506667,44.322 358.336667,44.356 357.520667,44.696 C356.670667,45.036 356.024667,45.75 355.684667,46.532 C355.412667,47.28 355.378667,47.518 355.378667,49.422 L355.378667,61.73 C355.378667,63.328 355.378667,63.532 355.514667,64.076 C355.786667,65.3 356.432667,66.116 357.520667,66.626 C358.234667,66.932 358.710667,67 360.478667,67 L366.292667,67 C367.992667,67 368.672667,66.83 369.420667,66.184 C370.168667,65.572 370.610667,64.518 370.610667,63.498 C370.610667,62.478 370.168667,61.492 369.420667,60.88 C368.638667,60.166 367.890667,59.996 366.292667,59.996 L363.538667,59.996 C363.164667,59.996 363.130667,59.996 362.790667,60.064 C362.858667,59.724 362.858667,59.656 362.858667,59.316 L362.858667,58.976 C362.858667,58.636 362.858667,58.568 362.790667,58.262 C363.130667,58.296 363.164667,58.296 363.538667,58.296 L365.510667,58.296 C366.700667,58.296 367.244667,58.194 367.822667,57.752 C368.468667,57.242 368.842667,56.46 368.842667,55.61 C368.842667,53.978 367.618667,52.89 365.782667,52.89 L363.538667,52.89 C363.164667,52.89 363.130667,52.89 362.790667,52.958 C362.858667,52.618 362.858667,52.55 362.858667,52.21 L362.858667,52.006 C362.858667,51.632 362.858667,51.564 362.790667,51.224 C363.130667,51.292 363.164667,51.292 363.538667,51.292 L366.564667,51.292 Z M386.807889,58.262 C388.507889,56.324 389.187889,54.624 389.187889,52.482 C389.187889,48.878 386.841889,45.75 383.441889,44.73 C382.387889,44.424 381.571889,44.322 379.599889,44.322 L376.471889,44.322 C374.669889,44.322 373.921889,44.526 373.071889,45.274 C372.221889,46.09 371.847889,47.042 371.847889,48.64 L371.847889,62.614 C371.847889,65.436 373.275889,67.17 375.655889,67.17 C377.729889,67.17 379.327889,65.538 379.327889,63.396 L379.327889,61.866 C379.327889,61.084 379.293889,60.846 379.225889,60.098 L379.293889,60.064 C379.939889,61.288 380.075889,61.56 380.891889,62.886 L382.421889,65.436 C383.135889,66.592 384.189889,67.17 385.515889,67.17 C387.623889,67.17 389.255889,65.572 389.255889,63.498 C389.255889,62.716 388.983889,61.798 388.541889,61.084 L386.807889,58.262 Z M380.041889,53.774 C379.905889,53.774 379.599889,53.774 379.259889,53.808 C379.327889,53.502 379.327889,53.4 379.327889,53.06 L379.327889,51.938 C379.327889,51.564 379.327889,51.496 379.259889,51.19 C379.769889,51.224 379.905889,51.224 380.245889,51.224 C381.299889,51.224 381.877889,51.7 381.877889,52.55 C381.877889,53.366 381.333889,53.774 380.177889,53.774 L380.041889,53.774 Z M399.652333,58.432 C397.714333,58.432 396.252333,59.894 396.252333,61.832 C396.252333,65.062 399.958333,67.578 404.752333,67.578 C407.574333,67.578 409.614333,66.864 411.110333,65.3 C412.504333,63.94 413.286333,61.934 413.286333,59.86 C413.286333,57.752 412.402333,55.678 411.008333,54.556 C409.954333,53.672 408.084333,52.754 406.180333,52.142 C404.412333,51.598 403.902333,51.258 403.902333,50.612 C403.902333,50.136 404.344333,49.694 404.820333,49.694 C405.228333,49.694 405.602333,49.898 406.384333,50.51 C407.608333,51.496 408.458333,51.836 409.444333,51.836 C411.178333,51.836 412.402333,50.544 412.402333,48.742 C412.402333,45.954 409.206333,43.744 405.126333,43.744 C400.162333,43.744 396.762333,46.804 396.762333,51.224 C396.762333,54.352 398.394333,56.494 401.726333,57.684 L403.732333,58.398 C404.650333,58.738 404.854333,58.806 405.024333,58.942 C405.466333,59.214 405.636333,59.52 405.636333,59.928 C405.636333,60.506 405.228333,60.88 404.684333,60.88 C404.140333,60.88 403.936333,60.778 402.338333,59.52 C401.318333,58.738 400.570333,58.432 399.652333,58.432 L399.652333,58.432 Z M427.817556,51.292 C429.143556,51.292 430.027556,51.054 430.605556,50.578 C431.421556,49.932 431.931556,48.81 431.931556,47.79 C431.931556,45.988 430.673556,44.594 428.769556,44.356 C428.361556,44.322 428.361556,44.322 426.355556,44.322 L418.807556,44.322 C415.815556,44.322 415.509556,44.356 414.761556,44.696 C413.639556,45.206 412.823556,46.532 412.823556,47.824 C412.823556,48.674 413.163556,49.524 413.775556,50.204 C414.489556,50.986 415.305556,51.292 416.665556,51.292 L417.957556,51.292 C418.331556,51.292 418.399556,51.292 418.705556,51.224 C418.671556,51.564 418.671556,51.632 418.671556,52.006 L418.671556,62.682 C418.671556,64.178 418.807556,64.824 419.351556,65.606 C420.031556,66.626 421.187556,67.17 422.411556,67.17 C423.703556,67.17 424.825556,66.558 425.505556,65.47 C426.015556,64.688 426.151556,63.974 426.151556,62.58 L426.151556,52.006 C426.151556,51.632 426.151556,51.564 426.083556,51.224 C426.423556,51.292 426.491556,51.292 426.831556,51.292 L427.817556,51.292 Z M442.144778,64.042 C443.232778,66.354 444.218778,67.17 445.952778,67.17 C448.026778,67.17 449.726778,65.538 449.726778,63.464 C449.726778,62.852 449.590778,62.206 449.318778,61.662 L442.144778,46.43 C441.498778,44.968 440.206778,44.152 438.642778,44.152 C437.146778,44.152 435.854778,44.968 435.208778,46.362 L428.102778,61.458 C427.796778,62.104 427.660778,62.784 427.660778,63.464 C427.660778,65.538 429.258778,67.17 431.366778,67.17 C433.168778,67.17 434.256778,66.286 435.208778,64.042 L442.144778,64.042 Z M438.676778,55.78 C438.948778,56.664 439.356778,57.514 439.934778,58.67 C439.390778,58.636 439.254778,58.636 438.642778,58.636 C438.030778,58.636 437.894778,58.636 437.350778,58.67 C437.962778,57.514 438.336778,56.664 438.642778,55.78 L438.676778,55.78 Z M460.45,51.292 C461.776,51.292 462.66,51.054 463.238,50.578 C464.054,49.932 464.564,48.81 464.564,47.79 C464.564,45.988 463.306,44.594 461.402,44.356 C460.994,44.322 460.994,44.322 458.988,44.322 L451.44,44.322 C448.448,44.322 448.142,44.356 447.394,44.696 C446.272,45.206 445.456,46.532 445.456,47.824 C445.456,48.674 445.796,49.524 446.408,50.204 C447.122,50.986 447.938,51.292 449.298,51.292 L450.59,51.292 C450.964,51.292 451.032,51.292 451.338,51.224 C451.304,51.564 451.304,51.632 451.304,52.006 L451.304,62.682 C451.304,64.178 451.44,64.824 451.984,65.606 C452.664,66.626 453.82,67.17 455.044,67.17 C456.336,67.17 457.458,66.558 458.138,65.47 C458.648,64.688 458.784,63.974 458.784,62.58 L458.784,52.006 C458.784,51.632 458.784,51.564 458.716,51.224 C459.056,51.292 459.124,51.292 459.464,51.292 L460.45,51.292 Z M472.805222,48.81 C472.805222,46.94 472.601222,46.192 471.853222,45.342 C471.173222,44.56 470.153222,44.152 469.065222,44.152 C467.977222,44.152 466.991222,44.56 466.277222,45.342 C465.529222,46.226 465.325222,46.906 465.325222,48.776 L465.325222,62.852 C465.325222,64.416 465.597222,65.232 466.277222,65.98 C466.991222,66.694 468.079222,67.17 469.099222,67.17 C470.085222,67.17 471.173222,66.694 471.853222,65.912 C472.533222,65.13 472.805222,64.28 472.805222,62.852 L472.805222,48.81 Z M486.350444,43.744 C479.754444,43.744 474.450444,49.014 474.450444,55.542 C474.450444,62.24 479.720444,67.578 486.418444,67.578 C492.980444,67.578 498.318444,62.206 498.318444,55.644 C498.318444,49.082 492.980444,43.744 486.350444,43.744 L486.350444,43.744 Z M486.384444,51.224 C488.832444,51.224 490.838444,53.264 490.838444,55.678 C490.838444,58.126 488.832444,60.132 486.384444,60.132 C483.936444,60.132 481.930444,58.126 481.930444,55.644 C481.930444,53.23 483.936444,51.224 486.384444,51.224 L486.384444,51.224 Z M507.375667,57.854 C508.157667,59.01 508.327667,59.248 509.279667,60.472 L513.325667,65.64 C514.107667,66.66 515.093667,67.17 516.283667,67.17 C517.439667,67.17 518.527667,66.66 519.173667,65.776 C519.853667,64.926 520.023667,64.178 520.023667,62.41 L520.023667,48.504 C520.023667,47.076 519.785667,46.294 519.139667,45.512 C518.425667,44.628 517.405667,44.152 516.283667,44.152 C515.059667,44.152 513.903667,44.764 513.223667,45.75 C512.679667,46.532 512.543667,47.246 512.543667,48.742 L512.543667,50.816 C512.543667,51.904 512.543667,52.142 512.645667,53.094 L512.577667,53.128 C511.795667,52.006 511.591667,51.768 510.605667,50.578 L506.593667,45.648 C505.709667,44.594 504.893667,44.152 503.805667,44.152 C501.425667,44.152 499.861667,45.75 499.861667,48.164 L499.861667,62.512 C499.861667,64.212 500.065667,64.858 500.677667,65.708 C501.391667,66.626 502.479667,67.17 503.669667,67.17 C504.791667,67.17 505.845667,66.66 506.559667,65.81 C507.171667,65.028 507.409667,64.28 507.409667,62.818 L507.409667,60.404 C507.409667,59.316 507.409667,58.976 507.273667,57.888 L507.375667,57.854 Z" id="PEOPLE’S-POWER-STATI"></path>
        </g>
    </g>
</svg>