<?xml version="1.0" encoding="UTF-8" standalone="no"?>
<svg width="22px" height="22px" viewBox="0 0 22 22" version="1.1" xmlns="http://www.w3.org/2000/svg" xmlns:xlink="http://www.w3.org/1999/xlink">
    <!-- Generator: Sketch 39.1 (31720) - http://www.bohemiancoding.com/sketch -->
    <title>Shape</title>
    <desc>Created with Sketch.</desc>
    <defs></defs>
    <g id="Symbols" stroke="none" stroke-width="1" fill="none" fill-rule="evenodd">
        <g id="SEARCH-BOX" transform="translate(0.000000, -23.000000)" fill="#D0D3D5">
            <path d="M15.7257862,31.1647799 L14.727044,31.1647799 L14.3798742,31.509434 C15.6062893,32.9396226 16.3522013,34.7937107 16.3522013,36.8251572 C16.3522013,41.3408805 12.6918239,45.0012579 8.17610063,45.0012579 C3.66037736,45.0012579 0,41.3408805 0,36.8251572 C0,32.309434 3.66037736,28.6490566 8.17610063,28.6490566 C10.2075472,28.6490566 12.0603774,29.3937107 13.490566,30.6188679 L13.8377358,30.2742138 L13.8377358,29.2779874 L20.1245283,23 L22,24.8754717 L15.7257862,31.1647799 L15.7257862,31.1647799 Z M8.17610063,31.1647799 C5.0490566,31.1647799 2.51572327,33.6981132 2.51572327,36.8251572 C2.51572327,39.9509434 5.0490566,42.4855346 8.17610063,42.4855346 C11.3018868,42.4855346 13.836478,39.9509434 13.836478,36.8251572 C13.836478,33.6981132 11.3018868,31.1647799 8.17610063,31.1647799 L8.17610063,31.1647799 Z" id="Shape" transform="translate(11.000000, 34.000629) scale(1, -1) translate(-11.000000, -34.000629) "></path>
        </g>
    </g>
</svg>